<svg fill="currentColor" version="1.1" viewBox="0 0 176 81" xmlns="http://www.w3.org/2000/svg">
 <path d="m80 0c-6.2836 0-12.218 1.4392-17.498 4h35c-5.2815-2.5616-11.217-4-17.502-4zm32 4c4.432 0 8 3.568 8 8v48h12c4.432 0 8-3.568 8-8s-3.568-8-8-8a8 8 0 0 1-8-8 8 8 0 0 1 8-8h4c6.648 0 12-5.352 12-12s-5.352-12-12-12zm52 0c-6.648 0-12 5.352-12 12s5.352 12 12 12 12-5.352 12-12-5.352-12-12-12zm-31.193 24.041c0.2608 0.02589 0.51732 0.06637 0.76953 0.11719a8 8 0 0 0-0.76953-0.11719zm0.76953 0.11719a8 8 0 0 1 0.0586 0.01172c-0.0195-0.0041-0.039-0.0078-0.0586-0.01172zm0.0586 0.01172c0.24986 0.0523 0.49548 0.11502 0.73632 0.18945a8 8 0 0 0-0.73632-0.18945zm0.73632 0.18945c0.24814 0.07669 0.48987 0.16574 0.72657 0.26562a8 8 0 0 0-0.72657-0.26562zm0.75586 0.2793c0.23537 0.10046 0.46619 0.21061 0.68946 0.33203a8 8 0 0 0-0.68946-0.33203zm0.7168 0.3457c0.23017 0.12633 0.45231 0.26503 0.66797 0.41211a8 8 0 0 0-0.66797-0.41211zm0.69727 0.43164c0.21391 0.14727 0.42118 0.30322 0.61914 0.4707a8 8 0 0 0-0.61914-0.4707zm0.61914 0.4707c0.18149 0.15356 0.35451 0.31723 0.52148 0.48633a8 8 0 0 0-0.52148-0.48633zm1.582 1.8086c0.13912 0.21805 0.26885 0.44194 0.38672 0.67383a8 8 0 0 0-0.38672-0.67383zm0.38867 0.67969c0.1072 0.21131 0.20454 0.42864 0.29297 0.65039a8 8 0 0 0-0.29297-0.65039zm0.36328 0.83789c0.0697 0.1882 0.13385 0.3776 0.18945 0.57226a8 8 0 0 0-0.18945-0.57226zm0.25195 0.80859c0.0448 0.17713 0.0863 0.35542 0.11914 0.53711a8 8 0 0 0-0.11914-0.53711zm0.16211 0.81836c0.0226 0.15647 0.0431 0.31334 0.0566 0.47266a8 8 0 0 0-0.0566-0.47266zm0.0508 1.9668c-0.0259 0.2608-0.0664 0.51732-0.11718 0.76953a8 8 0 0 0 0.11718-0.76953zm-0.11718 0.76953a8 8 0 0 1-0.0117 0.05859c4e-3 -0.01951 8e-3 -0.03903 0.0117-0.05859zm-0.0117 0.05859c-0.0523 0.24986-0.11502 0.49548-0.18946 0.73633a8 8 0 0 0 0.18946-0.73633zm-0.18946 0.73633c-0.0767 0.24814-0.16573 0.48986-0.26562 0.72656a8 8 0 0 0 0.26562-0.72656zm-0.27929 0.75586c-0.10046 0.23537-0.21061 0.46618-0.33203 0.68945a8 8 0 0 0 0.33203-0.68945zm-0.34571 0.7168c-0.12632 0.23017-0.26503 0.4523-0.4121 0.66797a8 8 0 0 0 0.4121-0.66797zm-0.43164 0.69727c-0.14727 0.21391-0.30321 0.42119-0.4707 0.61914a8 8 0 0 0 0.4707-0.61914zm-0.4707 0.61914c-0.15355 0.18149-0.31723 0.35451-0.48633 0.52148a8 8 0 0 0 0.48633-0.52148zm-1.8086 1.582c-0.21805 0.13912-0.44194 0.26885-0.67383 0.38672a8 8 0 0 0 0.67383-0.38672zm-0.67969 0.38867c-0.21131 0.1072-0.42864 0.20454-0.65039 0.29297a8 8 0 0 0 0.65039-0.29297zm-0.83789 0.36328c-0.1882 0.06966-0.3776 0.13385-0.57227 0.18945a8 8 0 0 0 0.57227-0.18945zm-0.80859 0.25195c-0.17713 0.04484-0.35542 0.08634-0.53711 0.11914a8 8 0 0 0 0.53711-0.11914zm-0.81836 0.16211c-0.15647 0.0226-0.31334 0.04314-0.47266 0.05664a8 8 0 0 0 0.47266-0.05664zm18.84 0.0918c-4.432 0-8 3.568-8 8s3.568 8 8 8 8-3.568 8-8-3.568-8-8-8zm-136 1.4199c-2.4841 2.8176-4 6.5113-4 10.58-6.648 0-12 5.352-12 12s5.352 12 12 12h8c-4.432 0-8-3.568-8-8h4z" opacity=".3"/>
 <path d="m24 3c-4.9687 0-9 4.0313-9 9v4a1 1 0 0 0 1 1 1 1 0 0 0 1-1v-4c0-3.8953 3.1047-7 7-7h88c3.8953 0 7 3.1047 7 7v59.922a1 1 0 0 0-0.00391 0.078125 1 1 0 0 0 0.77735 0.97461 1 1 0 0 0 0.0039 0 1 1 0 0 0 0.07813 0.015625 1 1 0 0 0 0.00391 0 1 1 0 0 0 0.08007 0.007813 1 1 0 0 0 0.00391 0 1 1 0 0 0 0.05273 0.001953 1 1 0 0 0 0.00391 0h2.7969c-0.49788 3.3907-3.2613 6-6.8008 6h-96c-3.5394 0-6.3028-2.6094-6.8008-6h38.234c0.89392 2.3368 3.1422 4 5.7871 4h21.566c2.6449 0 4.8931-1.6632 5.7871-4h27.26a1 1 0 0 0 1-1 1 1 0 0 0-1-1h-94.83v-43a1 1 0 0 0-1-1 1 1 0 0 0-1 1v43h-3.0039a1.0001 1.0001 0 0 0-1 1c0 4.9687 4.0313 9 9 9h96c4.9687 0 9-4.0313 9-9a1.0001 1.0001 0 0 0-1-1h-2.9961v-59c0-4.9687-4.0313-9-9-9h-88zm0 8a1.0001 1.0001 0 0 0-1 1v56a1.0001 1.0001 0 0 0 1 1h88a1.0001 1.0001 0 0 0 1-1v-56a1.0001 1.0001 0 0 0-1-1h-16a1 1 0 0 0-1 1 1 1 0 0 0 1 1h15v54h-86v-54h15a1 1 0 0 0 1-1 1 1 0 0 0-1-1h-16zm19.951 0a1 1 0 0 0-1 1 1 1 0 0 0 1 1h0.048828a1 1 0 0 0 1-1 1 1 0 0 0-1-1h-0.048828zm4.0488 0a1 1 0 0 0-1 1 1 1 0 0 0 1 1h3a1 1 0 0 0 1-1 1 1 0 0 0-1-1h-3zm7 0a1 1 0 0 0-1 1 1 1 0 0 0 1 1h33a1 1 0 0 0 1-1 1 1 0 0 0-1-1h-33zm-39 8a1 1 0 0 0-1 1v4a1 1 0 0 0 1 1 1 1 0 0 0 1-1v-4a1 1 0 0 0-1-1zm37.896 54h28.205c-0.75006 1.1283-1.8424 2-3.3184 2h-21.566c-1.4761 0-2.5703-0.87147-3.3203-2z"/>
 <path class="gnome" d="m24 11a1.0001 1.0001 0 0 0-1 1v4a1 1 0 0 0 1 1h88a1 1 0 0 0 1-1v-4a1.0001 1.0001 0 0 0-1-1h-8a1.0001 1.0001 0 0 0-1 1v3h-30v-3a1.0001 1.0001 0 0 0-1-1h-8a1.0001 1.0001 0 0 0-1 1v3h-30v-3a1.0001 1.0001 0 0 0-1-1h-8zm1 2h6v2h-6v-2zm40 0h6v2h-6v-2zm40 0h6v2h-6v-2zm-81 10a1.0001 1.0001 0 0 0-1 1v32a1.0001 1.0001 0 0 0 1 1h4a1.0001 1.0001 0 0 0 1-1v-32a1.0001 1.0001 0 0 0-1-1h-4zm16 0a1.0001 1.0001 0 0 0-1 1v8a1.0001 1.0001 0 0 0 1 1h8a1.0001 1.0001 0 0 0 1-1v-8a1.0001 1.0001 0 0 0-1-1h-8zm12 0a1.0001 1.0001 0 0 0-1 1v8a1.0001 1.0001 0 0 0 1 1h8a1.0001 1.0001 0 0 0 1-1v-8a1.0001 1.0001 0 0 0-1-1h-8zm12 0a1.0001 1.0001 0 0 0-1 1v8a1.0001 1.0001 0 0 0 1 1h8a1.0001 1.0001 0 0 0 1-1v-8a1.0001 1.0001 0 0 0-1-1h-8zm12 0a1.0001 1.0001 0 0 0-1 1v8a1.0001 1.0001 0 0 0 1 1h8a1.0001 1.0001 0 0 0 1-1v-8a1.0001 1.0001 0 0 0-1-1h-8zm12 0a1.0001 1.0001 0 0 0-1 1v8a1.0001 1.0001 0 0 0 1 1h8a1.0001 1.0001 0 0 0 1-1v-8a1.0001 1.0001 0 0 0-1-1h-8zm-63 2h2v30h-2v-30zm16 0h6v6h-6v-6zm12 0h6v6h-6v-6zm12 0h6v6h-6v-6zm12 0h6v6h-6v-6zm12 0h6v6h-6v-6zm-49 10a1.0001 1.0001 0 0 0-1 1v8a1.0001 1.0001 0 0 0 1 1h8a1.0001 1.0001 0 0 0 1-1v-8a1.0001 1.0001 0 0 0-1-1h-8zm12 0a1.0001 1.0001 0 0 0-1 1v8a1.0001 1.0001 0 0 0 1 1h8a1.0001 1.0001 0 0 0 1-1v-8a1.0001 1.0001 0 0 0-1-1h-8zm12 0a1.0001 1.0001 0 0 0-1 1v8a1.0001 1.0001 0 0 0 1 1h8a1.0001 1.0001 0 0 0 1-1v-8a1.0001 1.0001 0 0 0-1-1h-8zm12 0a1.0001 1.0001 0 0 0-1 1v8a1.0001 1.0001 0 0 0 1 1h8a1.0001 1.0001 0 0 0 1-1v-8a1.0001 1.0001 0 0 0-1-1h-8zm12 0a1.0001 1.0001 0 0 0-1 1v8a1.0001 1.0001 0 0 0 1 1h8a1.0001 1.0001 0 0 0 1-1v-8a1.0001 1.0001 0 0 0-1-1h-8zm-47 2h6v6h-6v-6zm12 0h6v6h-6v-6zm12 0h6v6h-6v-6zm12 0h6v6h-6v-6zm12 0h6v6h-6v-6zm-49 10a1.0001 1.0001 0 0 0-1 1v8a1.0001 1.0001 0 0 0 1 1h8a1.0001 1.0001 0 0 0 1-1v-8a1.0001 1.0001 0 0 0-1-1h-8zm12 0a1.0001 1.0001 0 0 0-1 1v8a1.0001 1.0001 0 0 0 1 1h8a1.0001 1.0001 0 0 0 1-1v-8a1.0001 1.0001 0 0 0-1-1h-8zm12 0a1.0001 1.0001 0 0 0-1 1v8a1.0001 1.0001 0 0 0 1 1h8a1.0001 1.0001 0 0 0 1-1v-8a1.0001 1.0001 0 0 0-1-1h-8zm12 0a1.0001 1.0001 0 0 0-1 1v8a1.0001 1.0001 0 0 0 1 1h8a1.0001 1.0001 0 0 0 1-1v-8a1.0001 1.0001 0 0 0-1-1h-8zm12 0a1.0001 1.0001 0 0 0-1 1v8a1.0001 1.0001 0 0 0 1 1h8a1.0001 1.0001 0 0 0 1-1v-8a1.0001 1.0001 0 0 0-1-1h-8zm-47 2h6v6h-6v-6zm12 0h6v6h-6v-6zm12 0h6v6h-6v-6zm12 0h6v6h-6v-6zm12 0h6v6h-6v-6z"/>
 <path class="kde" d="m28 15a1.0001 1.0001 0 0 0-1 1v4a1.0001 1.0001 0 0 0 1 1h4a1.0001 1.0001 0 0 0 1-1v-4a1.0001 1.0001 0 0 0-1-1h-4zm1 2h2v2h-2v-2zm-1 6a1.0001 1.0001 0 0 0-1 1v4a1.0001 1.0001 0 0 0 1 1h4a1.0001 1.0001 0 0 0 1-1v-4a1.0001 1.0001 0 0 0-1-1h-4zm1 2h2v2h-2v-2zm-1 6a1.0001 1.0001 0 0 0-1 1v4a1.0001 1.0001 0 0 0 1 1h4a1.0001 1.0001 0 0 0 1-1v-4a1.0001 1.0001 0 0 0-1-1h-4zm1 2h2v2h-2v-2zm-5 30a1.0001 1.0001 0 0 0-1 1v4a1.0001 1.0001 0 0 0 1 1h4a1.0001 1.0001 0 0 0 1-1v-3h83a1 1 0 0 0 1-1 1 1 0 0 0-1-1h-88zm1 2h2v2h-2v-2z"/>
 <path class="term" d="m28 15a1 1 0 0 0-1 1 1 1 0 0 0 1 1 1 1 0 0 0 1-1 1 1 0 0 0-1-1zm4 0a1 1 0 0 0-1 1 1 1 0 0 0 1 1h4a1 1 0 0 0 1-1 1 1 0 0 0-1-1h-4zm8 0a1 1 0 0 0-1 1 1 1 0 0 0 1 1h18a1 1 0 0 0 1-1 1 1 0 0 0-1-1h-18zm-8 4a1 1 0 0 0-1 1 1 1 0 0 0 1 1h2a1 1 0 0 0 1-1 1 1 0 0 0-1-1h-2zm6 0a1 1 0 0 0-1 1 1 1 0 0 0 1 1h40a1 1 0 0 0 1-1 1 1 0 0 0-1-1h-40zm-6 4a1 1 0 0 0-1 1 1 1 0 0 0 1 1h2a1 1 0 0 0 1-1 1 1 0 0 0-1-1h-2zm6 0a1 1 0 0 0-1 1 1 1 0 0 0 1 1h30a1 1 0 0 0 1-1 1 1 0 0 0-1-1h-30zm-8 4a1 1 0 0 0-1 1 1 1 0 0 0 1 1h4a1 1 0 0 0 1-1 1 1 0 0 0-1-1h-4zm8 0a1 1 0 0 0-1 1 1 1 0 0 0 1 1h6a1 1 0 0 0 1-1 1 1 0 0 0-1-1h-6zm-6 4a1 1 0 0 0-1 1 1 1 0 0 0 1 1h2a1 1 0 0 0 1-1 1 1 0 0 0-1-1h-2zm6 0a1 1 0 0 0-1 1 1 1 0 0 0 1 1h8a1 1 0 0 0 1-1 1 1 0 0 0-1-1h-8zm-6 4a1 1 0 0 0-1 1 1 1 0 0 0 1 1h2a1 1 0 0 0 1-1 1 1 0 0 0-1-1h-2zm6 0a1 1 0 0 0-1 1 1 1 0 0 0 1 1h12a1 1 0 0 0 1-1 1 1 0 0 0-1-1h-12zm0 4a1 1 0 0 0-1 1 1 1 0 0 0 1 1h12a1 1 0 0 0 1-1 1 1 0 0 0-1-1h-12zm-10 8a1 1 0 0 0-1 1 1 1 0 0 0 1 1h14a1 1 0 0 0 1-1 1 1 0 0 0-1-1h-14zm18 0a1 1 0 0 0-1 1 1 1 0 0 0 1 1h24a1 1 0 0 0 1-1 1 1 0 0 0-1-1h-24zm-18 4a1 1 0 0 0-1 1 1 1 0 0 0 1 1h14a1 1 0 0 0 1-1 1 1 0 0 0-1-1h-14zm18 0a1 1 0 0 0-1 1 1 1 0 0 0 1 1h20a1 1 0 0 0 1-1 1 1 0 0 0-1-1h-20zm-18 4a1 1 0 0 0-1 1 1 1 0 0 0 1 1h18a1 1 0 0 0 1-1 1 1 0 0 0-1-1h-18zm22 0a1 1 0 0 0-1 1 1 1 0 0 0 1 1h26a1 1 0 0 0 1-1 1 1 0 0 0-1-1h-26zm-19.971 4a1 1 0 0 0-0.73633 0.29297 1 1 0 0 0 0 1.4141l1.293 1.293-1.293 1.293a1 1 0 0 0 0 1.4141 1 1 0 0 0 1.4141 0l2-2a1.0001 1.0001 0 0 0 0-1.4141l-2-2a1 1 0 0 0-0.67773-0.29297z"/>
</svg>
