<svg xmlns="http://www.w3.org/2000/svg" width="960" height="570"><rect ry="15" width="850" height="563.643" x="55" rx="15" fill="#17191a"/><path fill="#616569" d="M80 40h800v450H80z"/><circle cx="480" cy="20" r="8" fill="#434343"/><path d="M479.947 505a12 12 0 00-9.447 4.623c1.464.391 2.5.727 2.81.832.005-.19.036-1.893.036-1.893s.004-.04.025-.06c.027-.026.066-.018.066-.018.385.056 8.602 1.274 12.065 3.292.428.25.639.517.903.786.957.99 2.222 5.108 2.358 5.957.005.033-.036.07-.053.083a5.173 5.173 0 01-.314.228c-.82.55-2.707 1.872-5.13 1.656-2.175-.193-5.018-1.44-8.445-3.699.337.79.669 1.58 1.001 2.371.496.258 5.287 2.7 7.65 2.651 1.905-.04 3.941-.968 4.756-1.458 0 0 .18-.108.257-.048.085.066.062.167.042.27-.05.234-.165.66-.242.863l-.066.165c-.093.25-.182.482-.355.625-.48.436-1.246.784-2.446 1.305-1.856.812-4.866 1.328-7.66 1.31-1.002-.022-1.969-.133-2.818-.232-1.743-.197-3.16-.357-4.025.269a12 12 0 009.032 4.122 12 12 0 0012-12 12 12 0 00-12-12zm2.677 6.963a3.504 3.504 0 00-2.522.942 3.498 3.498 0 00-1.114 2.449 3.528 3.528 0 003.39 3.64 3.48 3.48 0 002.524-.946 3.504 3.504 0 001.114-2.446 3.527 3.527 0 00-3.392-3.64zm-.03 1.035a2.458 2.458 0 012.368 2.539 2.43 2.43 0 01-.775 1.706 2.456 2.456 0 01-1.761.659 2.461 2.461 0 01-2.365-2.542c.02-.655.3-1.26.777-1.707a2.419 2.419 0 011.756-.655zm.401 1.23c-.601 0-1.087.325-1.087.727 0 .4.486.725 1.087.725s1.089-.326 1.089-.725c0-.402-.487-.726-1.089-.726z" fill="#a7a7a7"/><rect width="960" height="25" y="545" rx="5" ry="5" fill="#989898"/><path d="M407 545v6.847c0 2.855 2.253 5.153 5.05 5.153h135.9c2.797 0 5.05-2.298 5.05-5.153V545z" fill="#5a5a5a"/></svg>
