<svg xmlns="http://www.w3.org/2000/svg" preserveAspectRatio="xMidYMid meet" viewBox="0 0 1280 1280" height="1280" width="1280">
<path fill="#69aa22" d="m 0,0 v 280 720 280 H 1280 V 1000 280 0 Z" />
<path fill="#5f991f" d="M 29.171875,0 80,50.82812 81.414062,49.41406 130.82812,0 h -5.65624 L 120,5.17188 114.82812,0 h -5.65624 l 8,8 L 112,13.17188 98.828125,0 h -5.65625 L 109.17188,16 104,21.17188 82.828125,0 h -5.65625 L 56,21.17188 50.828125,16 l 16,-16 h -5.65625 L 48,13.17188 42.828125,8 l 8,-8 h -5.65625 L 40,5.17188 34.828125,0 Z M 173.17188,0 80,93.17188 l -80,-80 v 5.65624 l 80,80 L 178.82812,0 Z m 104,0 L 304,26.82812 330.82812,0 h -5.65624 L 304,21.17188 282.82812,0 Z m 152,0 L 528,98.82812 626.82812,0 h -5.65624 L 528,93.17188 434.82812,0 Z m 48,0 L 528,50.82812 529.41406,49.41406 578.82812,0 h -5.65624 L 568,5.17188 562.82812,0 h -5.65624 l 8,8 L 560,13.17188 546.82812,0 h -5.65624 l 16,16 L 552,21.17188 530.82812,0 h -5.65624 L 504,21.17188 498.82812,16 l 16,-16 h -5.65624 L 496,13.17188 490.82812,8 l 8,-8 h -5.65624 L 488,5.17188 482.82812,0 Z m 248,0 L 752,26.82812 778.82812,0 h -5.65624 L 752,21.17188 730.82812,0 Z m 152,0 L 976,98.82812 1074.8281,0 h -5.6562 L 976,93.17188 882.82812,0 Z m 48,0 L 976,50.82812 977.41406,49.41406 1026.8281,0 h -5.6562 L 1016,5.17188 1010.8281,0 h -5.6562 l 8,8 L 1008,13.17188 994.82812,0 h -5.65624 L 1005.1719,16 1000,21.17188 978.82812,0 h -5.65624 L 952,21.17188 946.82812,16 l 16,-16 h -5.65624 L 944,13.17188 938.82812,8 l 8,-8 h -5.65624 L 936,5.17188 930.82812,0 Z M 1173.1719,0 1200,26.82812 1226.8281,0 h -5.6562 L 1200,21.17188 1178.8281,0 Z M 80,2.82812 101.17188,24 96,29.17188 74.828125,8 Z m 448,0 L 549.17188,24 544,29.17188 522.82812,8 Z m 448,0 L 997.17188,24 992,29.17188 970.82812,8 Z m -904,8 L 93.171875,32 88,37.17188 66.828125,16 Z m 448,0 L 541.17188,32 536,37.17188 514.82812,16 Z m 448,0 L 989.17188,32 984,37.17188 962.82812,16 Z m -904,8 L 85.171875,40 80,45.17188 58.828125,24 Z m 448,0 L 533.17188,40 528,45.17188 506.82812,24 Z m 448,0 L 981.17188,40 976,45.17188 954.82812,24 Z M 304,37.17188 302.58594,38.58594 205.17188,136 l 24,24 -22.58594,22.58594 -1.41406,1.41406 24,24 -24,24 L 304,330.82813 402.82812,232 l -24,-24 22.58594,-22.58594 L 402.82812,184 401.41406,182.58594 378.82812,160 401.41406,137.41406 402.82812,136 Z m 448,0 -1.41406,1.41406 L 653.17188,136 l 24,24 -22.58594,22.58594 -1.41406,1.41406 24,24 -24,24 L 752,330.82813 850.82812,232 l -24,-24 22.58594,-22.58594 L 850.82812,184 849.41406,182.58594 826.82812,160 849.41406,137.41406 850.82812,136 Z m 448,0 -1.4141,1.41406 -97.414,97.41406 24,24 -22.586,22.58594 -1.414,1.41406 24,24 -24,24 98.8281,98.82813 80,-80 v -5.65625 l -80,80 L 1106.8281,232 1128,210.82813 l 72,72 1.4141,-1.41407 70.5859,-70.58593 8,8 v -5.65625 L 1274.8281,208 1280,202.82813 v -5.65625 L 1258.8281,176 1264,170.82812 l 16,16.00001 v -5.65625 L 1266.8281,168 1272,162.82812 l 8,8 v -5.65624 L 1274.8281,160 1280,154.82812 v -5.65624 L 1200,229.16992 1106.8281,136 1200,42.82812 l 80,80 v -5.65624 z M 304,42.82812 397.17188,136 304,229.16992 210.82812,136 Z m 448,0 L 845.17188,136 752,229.16992 658.82812,136 Z M 304,85.17188 253.17188,136 254.58594,137.41406 304,186.82813 354.82812,136 Z m 448,0 L 701.17188,136 702.58594,137.41406 752,186.82813 802.82812,136 Z m 448,0 -50.8281,50.82812 1.414,1.41406 L 1200,186.82813 1250.8281,136 Z M 304,90.82812 349.17188,136 304,181.17188 258.82812,136 Z m 448,0 L 797.17188,136 752,181.17188 706.82812,136 Z m 448,0 L 1245.1719,136 1200,181.17188 1154.8281,136 Z M 80,109.17188 78.585938,110.58594 0,189.17188 v 5.65625 L 80,114.82812 173.17188,208 80,301.16992 0,221.17188 v 5.65625 L 5.171875,232 0,237.17188 v 5.65625 l 8,-8 L 13.171875,240 0,253.17188 v 5.65625 l 16,-16 L 21.171875,248 0,269.17188 v 5.65625 L 5.171875,280 0,285.17188 v 5.65625 l 8,-8 72,72 1.414062,-1.41407 L 152,282.82813 173.17188,304 80,397.17188 l -80,-80 v 5.65625 L 80,402.82812 178.82812,304 l -24,-24 22.58594,-22.58594 L 178.82812,256 177.41406,254.58594 154.82812,232 177.41406,209.41406 178.82812,208 Z m 224,0 L 285.17188,128 286.58594,129.41406 304,146.82812 322.82812,128 Z m 224,0 -1.41406,1.41406 L 429.17188,208 l 24,24 -22.58594,22.58594 -1.41406,1.41406 1.41406,1.41406 22.58594,22.58594 -24,24 L 528,402.82812 626.82812,304 l -24,-24 22.58594,-22.58594 L 626.82812,256 625.41406,254.58594 602.82812,232 625.41406,209.41406 626.82812,208 Z m 224,0 L 733.17188,128 734.58594,129.41406 752,146.82812 770.82812,128 Z m 224,0 -1.41406,1.41406 L 877.17188,208 l 24,24 -22.58594,22.58594 -1.41406,1.41406 1.41406,1.41406 22.58594,22.58594 -24,24 L 976,402.82812 1074.8281,304 l -24,-24 22.586,-22.58594 1.414,-1.41406 -1.414,-1.41406 -22.586,-22.58594 22.586,-22.58594 1.414,-1.41406 z m 224,0 -18.8281,18.82812 1.414,1.41406 L 1200,146.82812 1218.8281,128 Z M 304,114.82812 317.17188,128 304,141.17188 290.82812,128 Z m 224,0 L 621.17188,208 528,301.16992 434.82812,208 Z m 224,0 L 765.17188,128 752,141.17188 738.82812,128 Z m 224,0 L 1069.1719,208 976,301.16992 882.82812,208 Z m 224,0 L 1213.1719,128 1200,141.17188 1186.8281,128 Z m -910.58594,27.75782 -2.82812,2.82812 L 304,162.82812 321.41406,145.41406 318.58594,142.58594 304,157.17188 Z m 448,0 -2.82812,2.82812 L 752,162.82812 769.41406,145.41406 766.58594,142.58594 752,157.17188 Z m 448.00004,0 -2.8282,2.82812 17.4141,17.41406 17.4141,-17.41406 -2.8282,-2.82812 L 1200,157.17188 Z M 80,157.17188 29.171875,208 30.585938,209.41406 80,258.82813 130.82812,208 Z m 448,0 L 477.17188,208 478.58594,209.41406 528,258.82813 578.82812,208 Z m 448,0 L 925.17188,208 926.58594,209.41406 976,258.82813 1026.8281,208 Z M 80,162.82812 125.17188,208 80,253.17188 34.828125,208 Z m 152,0 L 237.17188,168 216,189.17188 210.82812,184 Z m 144,0 L 397.17188,184 392,189.17188 370.82812,168 Z m 152,0 L 573.17188,208 528,253.17188 482.82812,208 Z m 152,0 L 685.17188,168 664,189.17188 658.82812,184 Z m 144,0 L 845.17188,184 840,189.17188 818.82812,168 Z m 152,0 L 1021.1719,208 976,253.17188 930.82812,208 Z m 152,0 L 1133.1719,168 1112,189.17188 1106.8281,184 Z m -888,8 L 245.17188,176 224,197.17188 218.82812,192 Z m 128,0 L 389.17188,192 384,197.17188 362.82812,176 Z m 320,0 L 693.17188,176 672,197.17188 666.82812,192 Z m 128,0 L 837.17188,192 832,197.17188 810.82812,176 Z m 320,0 L 1141.1719,176 1120,197.17188 1114.8281,192 Z m -888,8 L 253.17188,184 232,205.17188 226.82812,200 Z m 112,0 L 381.17188,200 376,205.17188 354.82812,184 Z m 336,0 L 701.17188,184 680,205.17188 674.82812,200 Z m 112,0 L 829.17188,200 824,205.17188 802.82812,184 Z m 336,0 L 1149.1719,184 1128,205.17188 1122.8281,200 Z m 112,0 L 1277.1719,200 1272,205.17188 1250.8281,184 Z M 80,181.17188 61.171875,200 62.585938,201.41406 80,218.82813 98.828125,200 Z m 448,0 L 509.17188,200 510.58594,201.41406 528,218.82813 546.82812,200 Z m 448,0 L 957.17188,200 958.58594,201.41406 976,218.82813 994.82812,200 Z M 80,186.82813 93.171875,200 80,213.17188 66.828125,200 Z m 176,0 L 261.17188,192 240,213.17188 234.82812,208 Z m 96,0 L 373.17188,208 368,213.17188 346.82812,192 Z m 176,0 L 541.17188,200 528,213.17188 514.82812,200 Z m 176,0 L 709.17188,192 688,213.17188 682.82812,208 Z m 96,0 L 821.17188,208 816,213.17188 794.82812,192 Z m 176,0 L 989.17188,200 976,213.17188 962.82812,200 Z m 176,0 L 1157.1719,192 1136,213.17188 1130.8281,208 Z m 96,0 L 1269.1719,208 1264,213.17188 1242.8281,192 Z m -984,8 L 269.17188,200 248,221.17188 242.82812,216 Z m 80,0 L 365.17188,216 360,221.17188 338.82812,200 Z m 368,0 L 717.17188,200 696,221.17188 690.82812,216 Z m 80,0 L 813.17188,216 808,221.17188 786.82812,200 Z m 368,0 L 1165.1719,200 1144,221.17188 1138.8281,216 Z m 80,0 L 1261.1719,216 1256,221.17188 1234.8281,200 Z m -968,8 L 277.17188,208 256,229.17188 250.82812,224 Z m 64,0 L 357.17188,224 352,229.17188 330.82812,208 Z m 384,0 L 725.17188,208 704,229.17188 698.82812,224 Z m 64,0 L 805.17188,224 800,229.17188 778.82812,208 Z m 384,0 L 1173.1719,208 1152,229.17188 1146.8281,224 Z m 64,0 L 1253.1719,224 1248,229.17188 1226.8281,208 Z m -1000,8 72,72 1.41406,-1.41407 L 376,210.82813 397.17188,232 304,325.17188 210.82812,232 Z m 48,0 L 285.17188,216 264,237.17188 258.82812,232 Z m 48,0 L 349.17188,232 344,237.17188 322.82812,216 Z m 352,0 72,72 1.41406,-1.41407 L 824,210.82813 845.17188,232 752,325.17188 658.82812,232 Z m 48,0 L 733.17188,216 712,237.17188 706.82812,232 Z m 48,0 L 797.17188,232 792,237.17188 770.82812,216 Z m 400,0 L 1181.1719,216 1160,237.17188 1154.8281,232 Z m 48,0 L 1245.1719,232 1240,237.17188 1218.8281,216 Z M 65.414062,214.58594 62.585938,217.41406 80,234.82813 97.414062,217.41406 94.585938,214.58594 80,229.17188 Z m 447.999998,0 -2.82812,2.82812 L 528,234.82813 545.41406,217.41406 542.58594,214.58594 528,229.17188 Z m 448,0 -2.82812,2.82812 L 976,234.82813 993.41406,217.41406 990.58594,214.58594 976,229.17188 Z M 288,218.82813 293.17188,224 272,245.17188 266.82812,240 Z m 32,0 L 341.17188,240 336,245.17188 314.82812,224 Z m 416,0 L 741.17188,224 720,245.17188 714.82812,240 Z m 32,0 L 789.17188,240 784,245.17188 762.82812,224 Z m 416,0 L 1189.1719,224 1168,245.17188 1162.8281,240 Z m 32,0 L 1237.1719,240 1232,245.17188 1210.8281,224 Z m -920,8 L 301.17188,232 280,253.17188 274.82812,248 Z m 16,0 L 333.17188,248 328,253.17188 306.82812,232 Z m 432,0 L 749.17188,232 728,253.17188 722.82812,248 Z m 16,0 L 781.17188,248 776,253.17188 754.82812,232 Z m 432,0 L 1197.1719,232 1176,253.17188 1170.8281,248 Z m 16,0 L 1229.1719,248 1224,253.17188 1202.8281,232 Z m -1056,8 L 173.17188,256 168,261.17188 146.82812,240 Z m 152,0 L 325.17188,256 320,261.17188 298.82812,240 Z m 152,0 L 461.17188,240 440,261.17188 434.82812,256 Z m 144,0 L 621.17188,256 616,261.17188 594.82812,240 Z m 152,0 L 773.17188,256 768,261.17188 746.82812,240 Z m 152,0 L 909.17188,240 888,261.17188 882.82812,256 Z m 144,0 L 1069.1719,256 1064,261.17188 1042.8281,240 Z m 152,0 L 1221.1719,256 1216,261.17188 1194.8281,240 Z m -1056,8 L 165.17188,264 160,269.17188 138.82812,248 Z m 152,0 L 317.17188,264 312,269.17188 290.82812,248 Z m 168,0 L 469.17188,248 448,269.17188 442.82812,264 Z m 128,0 L 613.17188,264 608,269.17188 586.82812,248 Z m 152,0 L 765.17188,264 760,269.17188 738.82812,248 Z m 168,0 L 917.17188,248 896,269.17188 890.82812,264 Z m 128,0 L 1061.1719,264 1056,269.17188 1034.8281,248 Z m 152,0 L 1213.1719,264 1208,269.17188 1186.8281,248 Z m -1168,8 L 29.171875,256 8,277.17188 2.828125,272 Z m 112,0 L 157.17188,272 152,277.17188 130.82812,256 Z m 152,0 L 309.17188,272 304,277.17188 282.82812,256 Z m 184,0 L 477.17188,256 456,277.17188 450.82812,272 Z m 112,0 L 605.17188,272 600,277.17188 578.82812,256 Z m 152,0 L 757.17188,272 752,277.17188 730.82812,256 Z m 184,0 L 925.17188,256 904,277.17188 898.82812,272 Z m 112,0 L 1053.1719,272 1048,277.17188 1026.8281,256 Z m 152,0 L 1205.1719,272 1200,277.17188 1178.8281,256 Z m -1152,8 L 37.171875,264 16,285.17188 10.828125,280 Z m 96,0 L 149.17188,280 144,285.17188 122.82812,264 Z m 352,0 L 485.17188,264 464,285.17188 458.82812,280 Z m 96,0 L 597.17188,280 592,285.17188 570.82812,264 Z m 352,0 L 933.17188,264 912,285.17188 906.82812,280 Z m 96,0 L 1045.1719,280 1040,285.17188 1018.8281,264 Z m -984,8 L 45.171875,272 24,293.17188 18.828125,288 Z m 80,0 L 141.17188,288 136,293.17188 114.82812,272 Z m 368,0 L 493.17188,272 472,293.17188 466.82812,288 Z m 80,0 L 589.17188,288 584,293.17188 562.82812,272 Z m 368,0 L 941.17188,272 920,293.17188 914.82812,288 Z m 80,0 L 1037.1719,288 1032,293.17188 1010.8281,272 Z m -968,8 L 53.171875,280 32,301.17188 26.828125,296 Z m 64,0 L 133.17188,296 128,301.17188 106.82812,280 Z m 384,0 L 501.17188,280 480,301.17188 474.82812,296 Z m 64,0 L 581.17188,296 576,301.17188 554.82812,280 Z m 384,0 L 949.17188,280 928,301.17188 922.82812,296 Z m 64,0 L 1029.1719,296 1024,301.17188 1002.8281,280 Z m -952,8 L 61.171875,288 40,309.17188 34.828125,304 Z m 48,0 L 125.17188,304 120,309.17188 98.828125,288 Z m 352,0 72,72 1.41406,-1.41407 L 600,282.82813 621.17188,304 528,397.17188 434.82812,304 Z m 48,0 L 509.17188,288 488,309.17188 482.82812,304 Z m 48,0 L 573.17188,304 568,309.17188 546.82812,288 Z m 352,0 72,72 1.41406,-1.41407 L 1048,282.82813 1069.1719,304 976,397.17188 882.82812,304 Z m 48,0 L 957.17188,288 936,309.17188 930.82812,304 Z m 48,0 L 1021.1719,304 1016,309.17188 994.82812,288 Z m -936,8 L 69.171875,296 48,317.17188 42.828125,312 Z m 32,0 L 117.17188,312 112,317.17188 90.828125,296 Z m 416,0 L 517.17188,296 496,317.17188 490.82812,312 Z m 32,0 L 565.17188,312 560,317.17188 538.82812,296 Z m 416,0 L 965.17188,296 944,317.17188 938.82812,312 Z m 32,0 L 1013.1719,312 1008,317.17188 986.82812,296 Z m -920,8 L 77.171875,304 56,325.17188 50.828125,320 Z m 16,0 L 109.17188,320 104,325.17188 82.828125,304 Z m 432,0 L 525.17188,304 504,325.17188 498.82812,320 Z m 16,0 L 557.17188,320 552,325.17188 530.82812,304 Z m 432,0 L 973.17188,304 952,325.17188 946.82812,320 Z m 16,0 L 1005.1719,320 1000,325.17188 978.82812,304 Z m -904,8 L 101.17188,328 96,333.17188 74.828125,312 Z m 448,0 L 549.17188,328 544,333.17188 522.82812,312 Z m 448,0 L 997.17188,328 992,333.17188 970.82812,312 Z m -904,8 L 93.171875,336 88,341.17188 66.828125,320 Z m 448,0 L 541.17188,336 536,341.17188 514.82812,320 Z m 448,0 L 989.17188,336 984,341.17188 962.82812,320 Z m -904,8 L 85.171875,344 80,349.17188 58.828125,328 Z m 448,0 L 533.17188,344 528,349.17188 506.82812,328 Z m 448,0 L 981.17188,344 976,349.17188 954.82812,328 Z m -656,18.34375 -1.41406,1.41406 L 205.17188,440 l 24,24 -22.58594,22.58594 -1.41406,1.41406 24,24 -24,24 L 304,634.82812 402.82812,536 l -24,-24 22.58594,-22.58594 L 402.82812,488 401.41406,486.58594 378.82812,464 401.41406,441.41406 402.82812,440 Z m 448,0 -1.41406,1.41406 L 653.17188,440 l 24,24 -22.58594,22.58594 -1.41406,1.41406 24,24 -24,24 L 752,634.82812 850.82812,536 l -24,-24 22.58594,-22.58594 L 850.82812,488 849.41406,486.58594 826.82812,464 849.41406,441.41406 850.82812,440 Z m 448,0 -1.4141,1.41406 -97.414,97.41406 24,24 -22.586,22.58594 -1.414,1.41406 24,24 -24,24 98.8281,98.82812 80,-80 v -5.65624 l -80,80 L 1106.8281,536 1128,514.82812 l 72,72 1.4141,-1.41406 70.5859,-70.58594 8,8 v -5.65624 L 1274.8281,512 1280,506.82812 v -5.65624 L 1258.8281,480 1264,474.82812 l 16,16 v -5.65624 L 1266.8281,472 1272,466.82812 l 8,8 v -5.65624 L 1274.8281,464 1280,458.82812 v -5.65624 L 1200,533.16992 1106.8281,440 1200,346.82813 l 80,79.99999 v -5.65624 z M 304,346.82813 397.17188,440 304,533.16992 210.82812,440 Z m 448,0 L 845.17188,440 752,533.16992 658.82812,440 Z M 304,389.17188 253.17188,440 254.58594,441.41406 304,490.82812 354.82812,440 Z m 448,0 L 701.17188,440 702.58594,441.41406 752,490.82812 802.82812,440 Z m 448,0 -50.8281,50.82812 1.414,1.41406 L 1200,490.82812 1250.8281,440 Z M 304,394.82812 349.17188,440 304,485.17188 258.82812,440 Z m 448,0 L 797.17188,440 752,485.17188 706.82812,440 Z m 448,0 L 1245.1719,440 1200,485.17188 1154.8281,440 Z M 80,413.17188 78.585938,414.58594 0,493.17188 v 5.65624 l 80,-80 L 173.17188,512 80,605.16992 0,525.17188 v 5.65624 L 5.171875,536 0,541.17188 v 5.65624 l 8,-8 L 13.171875,544 0,557.17188 v 5.65624 l 16,-16 L 21.171875,552 0,573.17188 v 5.65624 L 5.171875,584 0,589.17188 v 5.65624 l 8,-8 72,72 1.414062,-1.41406 L 152,586.82812 173.17188,608 80,701.17188 l -80,-80 v 5.65624 l 80,80 L 178.82812,608 l -24,-24 22.58594,-22.58594 L 178.82812,560 177.41406,558.58594 154.82812,536 177.41406,513.41406 178.82812,512 Z m 224,0 L 285.17188,432 286.58594,433.41406 304,450.82812 322.82812,432 Z m 224,0 -1.41406,1.41406 L 429.17188,512 l 24,24 -22.58594,22.58594 -1.41406,1.41406 1.41406,1.41406 22.58594,22.58594 -24,24 L 528,706.82812 626.82812,608 l -24,-24 22.58594,-22.58594 L 626.82812,560 625.41406,558.58594 602.82812,536 625.41406,513.41406 626.82812,512 Z m 224,0 L 733.17188,432 734.58594,433.41406 752,450.82812 770.82812,432 Z m 224,0 -1.41406,1.41406 L 877.17188,512 l 24,24 -22.58594,22.58594 -1.41406,1.41406 1.41406,1.41406 22.58594,22.58594 -24,24 L 976,706.82812 1074.8281,608 l -24,-24 22.586,-22.58594 1.414,-1.41406 -1.414,-1.41406 -22.586,-22.58594 22.586,-22.58594 1.414,-1.41406 z m 224,0 -18.8281,18.82812 1.414,1.41406 L 1200,450.82812 1218.8281,432 Z M 304,418.82812 317.17188,432 304,445.17188 290.82812,432 Z m 224,0 L 621.17188,512 528,605.16992 434.82812,512 Z m 224,0 L 765.17188,432 752,445.17188 738.82812,432 Z m 224,0 L 1069.1719,512 976,605.16992 882.82812,512 Z m 224,0 L 1213.1719,432 1200,445.17188 1186.8281,432 Z m -910.58594,27.75782 -2.82812,2.82812 L 304,466.82812 321.41406,449.41406 318.58594,446.58594 304,461.17188 Z m 448,0 -2.82812,2.82812 L 752,466.82812 769.41406,449.41406 766.58594,446.58594 752,461.17188 Z m 448.00004,0 -2.8282,2.82812 17.4141,17.41406 17.4141,-17.41406 -2.8282,-2.82812 L 1200,461.17188 Z M 80,461.17188 29.171875,512 30.585938,513.41406 80,562.82812 130.82812,512 Z m 448,0 L 477.17188,512 478.58594,513.41406 528,562.82812 578.82812,512 Z m 448,0 L 925.17188,512 926.58594,513.41406 976,562.82812 1026.8281,512 Z M 80,466.82812 125.17188,512 80,557.17188 34.828125,512 Z m 152,0 L 237.17188,472 216,493.17188 210.82812,488 Z m 144,0 L 397.17188,488 392,493.17188 370.82812,472 Z m 152,0 L 573.17188,512 528,557.17188 482.82812,512 Z m 152,0 L 685.17188,472 664,493.17188 658.82812,488 Z m 144,0 L 845.17188,488 840,493.17188 818.82812,472 Z m 152,0 L 1021.1719,512 976,557.17188 930.82812,512 Z m 152,0 L 1133.1719,472 1112,493.17188 1106.8281,488 Z m -888,8 L 245.17188,480 224,501.17188 218.82812,496 Z m 128,0 L 389.17188,496 384,501.17188 362.82812,480 Z m 320,0 L 693.17188,480 672,501.17188 666.82812,496 Z m 128,0 L 837.17188,496 832,501.17188 810.82812,480 Z m 320,0 L 1141.1719,480 1120,501.17188 1114.8281,496 Z m -888,8 L 253.17188,488 232,509.17188 226.82812,504 Z m 112,0 L 381.17188,504 376,509.17188 354.82812,488 Z m 336,0 L 701.17188,488 680,509.17188 674.82812,504 Z m 112,0 L 829.17188,504 824,509.17188 802.82812,488 Z m 336,0 L 1149.1719,488 1128,509.17188 1122.8281,504 Z m 112,0 L 1277.1719,504 1272,509.17188 1250.8281,488 Z M 80,485.17188 61.171875,504 62.585938,505.41406 80,522.82812 98.828125,504 Z m 448,0 L 509.17188,504 510.58594,505.41406 528,522.82812 546.82812,504 Z m 448,0 L 957.17188,504 958.58594,505.41406 976,522.82812 994.82812,504 Z M 80,490.82812 93.171875,504 80,517.17188 66.828125,504 Z m 176,0 L 261.17188,496 240,517.17188 234.82812,512 Z m 96,0 L 373.17188,512 368,517.17188 346.82812,496 Z m 176,0 L 541.17188,504 528,517.17188 514.82812,504 Z m 176,0 L 709.17188,496 688,517.17188 682.82812,512 Z m 96,0 L 821.17188,512 816,517.17188 794.82812,496 Z m 176,0 L 989.17188,504 976,517.17188 962.82812,504 Z m 176,0 L 1157.1719,496 1136,517.17188 1130.8281,512 Z m 96,0 L 1269.1719,512 1264,517.17188 1242.8281,496 Z m -984,8 L 269.17188,504 248,525.17188 242.82812,520 Z m 80,0 L 365.17188,520 360,525.17188 338.82812,504 Z m 368,0 L 717.17188,504 696,525.17188 690.82812,520 Z m 80,0 L 813.17188,520 808,525.17188 786.82812,504 Z m 368,0 L 1165.1719,504 1144,525.17188 1138.8281,520 Z m 80,0 L 1261.1719,520 1256,525.17188 1234.8281,504 Z m -968,8 L 277.17188,512 256,533.17188 250.82812,528 Z m 64,0 L 357.17188,528 352,533.17188 330.82812,512 Z m 384,0 L 725.17188,512 704,533.17188 698.82812,528 Z m 64,0 L 805.17188,528 800,533.17188 778.82812,512 Z m 384,0 L 1173.1719,512 1152,533.17188 1146.8281,528 Z m 64,0 L 1253.1719,528 1248,533.17188 1226.8281,512 Z m -1000,8 72,72 1.41406,-1.41406 L 376,514.82812 397.17188,536 304,629.17188 210.82812,536 Z m 48,0 L 285.17188,520 264,541.17188 258.82812,536 Z m 48,0 L 349.17188,536 344,541.17188 322.82812,520 Z m 352,0 72,72 1.41406,-1.41406 L 824,514.82812 845.17188,536 752,629.17188 658.82812,536 Z m 48,0 L 733.17188,520 712,541.17188 706.82812,536 Z m 48,0 L 797.17188,536 792,541.17188 770.82812,520 Z m 400,0 L 1181.1719,520 1160,541.17188 1154.8281,536 Z m 48,0 L 1245.1719,536 1240,541.17188 1218.8281,520 Z M 65.414062,518.58594 62.585938,521.41406 80,538.82812 97.414062,521.41406 94.585938,518.58594 80,533.17188 Z m 447.999998,0 -2.82812,2.82812 L 528,538.82812 545.41406,521.41406 542.58594,518.58594 528,533.17188 Z m 448,0 -2.82812,2.82812 L 976,538.82812 993.41406,521.41406 990.58594,518.58594 976,533.17188 Z M 288,522.82812 293.17188,528 272,549.17188 266.82812,544 Z m 32,0 L 341.17188,544 336,549.17188 314.82812,528 Z m 416,0 L 741.17188,528 720,549.17188 714.82812,544 Z m 32,0 L 789.17188,544 784,549.17188 762.82812,528 Z m 416,0 L 1189.1719,528 1168,549.17188 1162.8281,544 Z m 32,0 L 1237.1719,544 1232,549.17188 1210.8281,528 Z m -920,8 L 301.17188,536 280,557.17188 274.82812,552 Z m 16,0 L 333.17188,552 328,557.17188 306.82812,536 Z m 432,0 L 749.17188,536 728,557.17188 722.82812,552 Z m 16,0 L 781.17188,552 776,557.17188 754.82812,536 Z m 432,0 L 1197.1719,536 1176,557.17188 1170.8281,552 Z m 16,0 L 1229.1719,552 1224,557.17188 1202.8281,536 Z m -1056,8 L 173.17188,560 168,565.17188 146.82812,544 Z m 152,0 L 325.17188,560 320,565.17188 298.82812,544 Z m 152,0 L 461.17188,544 440,565.17188 434.82812,560 Z m 144,0 L 621.17188,560 616,565.17188 594.82812,544 Z m 152,0 L 773.17188,560 768,565.17188 746.82812,544 Z m 152,0 L 909.17188,544 888,565.17188 882.82812,560 Z m 144,0 L 1069.1719,560 1064,565.17188 1042.8281,544 Z m 152,0 L 1221.1719,560 1216,565.17188 1194.8281,544 Z m -1056,8 L 165.17188,568 160,573.17188 138.82812,552 Z m 152,0 L 317.17188,568 312,573.17188 290.82812,552 Z m 168,0 L 469.17188,552 448,573.17188 442.82812,568 Z m 128,0 L 613.17188,568 608,573.17188 586.82812,552 Z m 152,0 L 765.17188,568 760,573.17188 738.82812,552 Z m 168,0 L 917.17188,552 896,573.17188 890.82812,568 Z m 128,0 L 1061.1719,568 1056,573.17188 1034.8281,552 Z m 152,0 L 1213.1719,568 1208,573.17188 1186.8281,552 Z m -1168,8 L 29.171875,560 8,581.17188 2.828125,576 Z m 112,0 L 157.17188,576 152,581.17188 130.82812,560 Z m 152,0 L 309.17188,576 304,581.17188 282.82812,560 Z m 184,0 L 477.17188,560 456,581.17188 450.82812,576 Z m 112,0 L 605.17188,576 600,581.17188 578.82812,560 Z m 152,0 L 757.17188,576 752,581.17188 730.82812,560 Z m 184,0 L 925.17188,560 904,581.17188 898.82812,576 Z m 112,0 L 1053.1719,576 1048,581.17188 1026.8281,560 Z m 152,0 L 1205.1719,576 1200,581.17188 1178.8281,560 Z m -1152,8 L 37.171875,568 16,589.17188 10.828125,584 Z m 96,0 L 149.17188,584 144,589.17188 122.82812,568 Z m 352,0 L 485.17188,568 464,589.17188 458.82812,584 Z m 96,0 L 597.17188,584 592,589.17188 570.82812,568 Z m 352,0 L 933.17188,568 912,589.17188 906.82812,584 Z m 96,0 L 1045.1719,584 1040,589.17188 1018.8281,568 Z m -984,8 L 45.171875,576 24,597.17188 18.828125,592 Z m 80,0 L 141.17188,592 136,597.17188 114.82812,576 Z m 368,0 L 493.17188,576 472,597.17188 466.82812,592 Z m 80,0 L 589.17188,592 584,597.17188 562.82812,576 Z m 368,0 L 941.17188,576 920,597.17188 914.82812,592 Z m 80,0 L 1037.1719,592 1032,597.17188 1010.8281,576 Z m -968,8 L 53.171875,584 32,605.17188 26.828125,600 Z m 64,0 L 133.17188,600 128,605.17188 106.82812,584 Z m 384,0 L 501.17188,584 480,605.17188 474.82812,600 Z m 64,0 L 581.17188,600 576,605.17188 554.82812,584 Z m 384,0 L 949.17188,584 928,605.17188 922.82812,600 Z m 64,0 L 1029.1719,600 1024,605.17188 1002.8281,584 Z m -952,8 L 61.171875,592 40,613.17188 34.828125,608 Z m 48,0 L 125.17188,608 120,613.17188 98.828125,592 Z m 352,0 72,72 1.41406,-1.41406 L 600,586.82812 621.17188,608 528,701.17188 434.82812,608 Z m 48,0 L 509.17188,592 488,613.17188 482.82812,608 Z m 48,0 L 573.17188,608 568,613.17188 546.82812,592 Z m 352,0 72,72 1.41406,-1.41406 L 1048,586.82812 1069.1719,608 976,701.17188 882.82812,608 Z m 48,0 L 957.17188,592 936,613.17188 930.82812,608 Z m 48,0 L 1021.1719,608 1016,613.17188 994.82812,592 Z m -936,8 L 69.171875,600 48,621.17188 42.828125,616 Z m 32,0 L 117.17188,616 112,621.17188 90.828125,600 Z m 416,0 L 517.17188,600 496,621.17188 490.82812,616 Z m 32,0 L 565.17188,616 560,621.17188 538.82812,600 Z m 416,0 L 965.17188,600 944,621.17188 938.82812,616 Z m 32,0 L 1013.1719,616 1008,621.17188 986.82812,600 Z m -920,8 L 77.171875,608 56,629.17188 50.828125,624 Z m 16,0 L 109.17188,624 104,629.17188 82.828125,608 Z m 432,0 L 525.17188,608 504,629.17188 498.82812,624 Z m 16,0 L 557.17188,624 552,629.17188 530.82812,608 Z m 432,0 L 973.17188,608 952,629.17188 946.82812,624 Z m 16,0 L 1005.1719,624 1000,629.17188 978.82812,608 Z m -904,8 L 101.17188,632 96,637.17188 74.828125,616 Z m 448,0 L 549.17188,632 544,637.17188 522.82812,616 Z m 448,0 L 997.17188,632 992,637.17188 970.82812,616 Z m -904,8 L 93.171875,640 88,645.17188 66.828125,624 Z m 448,0 L 541.17188,640 536,645.17188 514.82812,624 Z m 448,0 L 989.17188,640 984,645.17188 962.82812,624 Z m -904,8 L 85.171875,648 80,653.17188 58.828125,632 Z m 448,0 L 533.17188,648 528,653.17188 506.82812,632 Z m 448,0 L 981.17188,648 976,653.17188 954.82812,632 Z m -656,18.34376 -1.41406,1.41406 L 205.17188,744 l 24,24 -22.58594,22.58594 -1.41406,1.41406 24,24 -24,24 L 304,938.82812 402.82812,840 l -24,-24 22.58594,-22.58594 L 402.82812,792 401.41406,790.58594 378.82812,768 401.41406,745.41406 402.82812,744 Z m 448,0 -1.41406,1.41406 L 653.17188,744 l 24,24 -22.58594,22.58594 -1.41406,1.41406 24,24 -24,24 L 752,938.82812 850.82812,840 l -24,-24 22.58594,-22.58594 L 850.82812,792 849.41406,790.58594 826.82812,768 849.41406,745.41406 850.82812,744 Z m 448,0 -1.4141,1.41406 -97.414,97.41406 24,24 -22.586,22.58594 -1.414,1.41406 24,24 -24,24 98.8281,98.82812 80,-80 v -5.65624 l -80,80 L 1106.8281,840 1128,818.82812 l 72,72 1.4141,-1.41406 70.5859,-70.58594 8,8 v -5.65624 L 1274.8281,816 1280,810.82812 v -5.65624 L 1258.8281,784 1264,778.82812 l 16,16 v -5.65624 L 1266.8281,776 1272,770.82812 l 8,8 v -5.65624 L 1274.8281,768 1280,762.82812 v -5.65624 L 1200,837.16992 1106.8281,744 1200,650.82812 l 80,80 v -5.65624 z M 304,650.82812 397.17188,744 304,837.16992 210.82812,744 Z m 448,0 L 845.17188,744 752,837.16992 658.82812,744 Z M 304,693.17188 253.17188,744 254.58594,745.41406 304,794.82812 354.82812,744 Z m 448,0 L 701.17188,744 702.58594,745.41406 752,794.82812 802.82812,744 Z m 448,0 -50.8281,50.82812 1.414,1.41406 L 1200,794.82812 1250.8281,744 Z M 304,698.82812 349.17188,744 304,789.17188 258.82812,744 Z m 448,0 L 797.17188,744 752,789.17188 706.82812,744 Z m 448,0 L 1245.1719,744 1200,789.17188 1154.8281,744 Z M 80,717.17188 78.585938,718.58594 0,797.17188 v 5.65624 l 80,-80 L 173.17188,816 80,909.16992 0,829.17188 v 5.65624 L 5.171875,840 0,845.17188 v 5.65624 l 8,-8 L 13.171875,848 0,861.17188 v 5.65624 l 16,-16 L 21.171875,856 0,877.17188 v 5.65624 L 5.171875,888 0,893.17188 v 5.65624 l 8,-8 72,72 1.414062,-1.41406 L 152,890.82812 173.17188,912 80,1005.1719 0,925.17188 v 5.65624 L 80,1010.8281 178.82812,912 l -24,-24 22.58594,-22.58594 L 178.82812,864 177.41406,862.58594 154.82812,840 177.41406,817.41406 178.82812,816 Z m 224,0 L 285.17188,736 286.58594,737.41406 304,754.82812 322.82812,736 Z m 224,0 -1.41406,1.41406 L 429.17188,816 l 24,24 -22.58594,22.58594 -1.41406,1.41406 1.41406,1.41406 22.58594,22.58594 -24,24 L 528,1010.8281 626.82812,912 l -24,-24 22.58594,-22.58594 L 626.82812,864 625.41406,862.58594 602.82812,840 625.41406,817.41406 626.82812,816 Z m 224,0 L 733.17188,736 734.58594,737.41406 752,754.82812 770.82812,736 Z m 224,0 -1.41406,1.41406 L 877.17188,816 l 24,24 -22.58594,22.58594 -1.41406,1.41406 1.41406,1.41406 22.58594,22.58594 -24,24 L 976,1010.8281 1074.8281,912 l -24,-24 22.586,-22.58594 1.414,-1.41406 -1.414,-1.41406 -22.586,-22.58594 22.586,-22.58594 1.414,-1.41406 z m 224,0 -18.8281,18.82812 1.414,1.41406 L 1200,754.82812 1218.8281,736 Z M 304,722.82812 317.17188,736 304,749.17188 290.82812,736 Z m 224,0 L 621.17188,816 528,909.16992 434.82812,816 Z m 224,0 L 765.17188,736 752,749.17188 738.82812,736 Z m 224,0 L 1069.1719,816 976,909.16992 882.82812,816 Z m 224,0 L 1213.1719,736 1200,749.17188 1186.8281,736 Z m -910.58594,27.75782 -2.82812,2.82812 L 304,770.82812 321.41406,753.41406 318.58594,750.58594 304,765.17188 Z m 448,0 -2.82812,2.82812 L 752,770.82812 769.41406,753.41406 766.58594,750.58594 752,765.17188 Z m 448.00004,0 -2.8282,2.82812 17.4141,17.41406 17.4141,-17.41406 -2.8282,-2.82812 L 1200,765.17188 Z M 80,765.17188 29.171875,816 30.585938,817.41406 80,866.82812 130.82812,816 Z m 448,0 L 477.17188,816 478.58594,817.41406 528,866.82812 578.82812,816 Z m 448,0 L 925.17188,816 926.58594,817.41406 976,866.82812 1026.8281,816 Z M 80,770.82812 125.17188,816 80,861.17188 34.828125,816 Z m 152,0 L 237.17188,776 216,797.17188 210.82812,792 Z m 144,0 L 397.17188,792 392,797.17188 370.82812,776 Z m 152,0 L 573.17188,816 528,861.17188 482.82812,816 Z m 152,0 L 685.17188,776 664,797.17188 658.82812,792 Z m 144,0 L 845.17188,792 840,797.17188 818.82812,776 Z m 152,0 L 1021.1719,816 976,861.17188 930.82812,816 Z m 152,0 L 1133.1719,776 1112,797.17188 1106.8281,792 Z m -888,8 L 245.17188,784 224,805.17188 218.82812,800 Z m 128,0 L 389.17188,800 384,805.17188 362.82812,784 Z m 320,0 L 693.17188,784 672,805.17188 666.82812,800 Z m 128,0 L 837.17188,800 832,805.17188 810.82812,784 Z m 320,0 L 1141.1719,784 1120,805.17188 1114.8281,800 Z m -888,8 L 253.17188,792 232,813.17188 226.82812,808 Z m 112,0 L 381.17188,808 376,813.17188 354.82812,792 Z m 336,0 L 701.17188,792 680,813.17188 674.82812,808 Z m 112,0 L 829.17188,808 824,813.17188 802.82812,792 Z m 336,0 L 1149.1719,792 1128,813.17188 1122.8281,808 Z m 112,0 L 1277.1719,808 1272,813.17188 1250.8281,792 Z M 80,789.17188 61.171875,808 62.585938,809.41406 80,826.82812 98.828125,808 Z m 448,0 L 509.17188,808 510.58594,809.41406 528,826.82812 546.82812,808 Z m 448,0 L 957.17188,808 958.58594,809.41406 976,826.82812 994.82812,808 Z M 80,794.82812 93.171875,808 80,821.17188 66.828125,808 Z m 176,0 L 261.17188,800 240,821.17188 234.82812,816 Z m 96,0 L 373.17188,816 368,821.17188 346.82812,800 Z m 176,0 L 541.17188,808 528,821.17188 514.82812,808 Z m 176,0 L 709.17188,800 688,821.17188 682.82812,816 Z m 96,0 L 821.17188,816 816,821.17188 794.82812,800 Z m 176,0 L 989.17188,808 976,821.17188 962.82812,808 Z m 176,0 L 1157.1719,800 1136,821.17188 1130.8281,816 Z m 96,0 L 1269.1719,816 1264,821.17188 1242.8281,800 Z m -984,8 L 269.17188,808 248,829.17188 242.82812,824 Z m 80,0 L 365.17188,824 360,829.17188 338.82812,808 Z m 368,0 L 717.17188,808 696,829.17188 690.82812,824 Z m 80,0 L 813.17188,824 808,829.17188 786.82812,808 Z m 368,0 L 1165.1719,808 1144,829.17188 1138.8281,824 Z m 80,0 L 1261.1719,824 1256,829.17188 1234.8281,808 Z m -968,8 L 277.17188,816 256,837.17188 250.82812,832 Z m 64,0 L 357.17188,832 352,837.17188 330.82812,816 Z m 384,0 L 725.17188,816 704,837.17188 698.82812,832 Z m 64,0 L 805.17188,832 800,837.17188 778.82812,816 Z m 384,0 L 1173.1719,816 1152,837.17188 1146.8281,832 Z m 64,0 L 1253.1719,832 1248,837.17188 1226.8281,816 Z m -1000,8 72,72 1.41406,-1.41406 L 376,818.82812 397.17188,840 304,933.17188 210.82812,840 Z m 48,0 L 285.17188,824 264,845.17188 258.82812,840 Z m 48,0 L 349.17188,840 344,845.17188 322.82812,824 Z m 352,0 72,72 1.41406,-1.41406 L 824,818.82812 845.17188,840 752,933.17188 658.82812,840 Z m 48,0 L 733.17188,824 712,845.17188 706.82812,840 Z m 48,0 L 797.17188,840 792,845.17188 770.82812,824 Z m 400,0 L 1181.1719,824 1160,845.17188 1154.8281,840 Z m 48,0 L 1245.1719,840 1240,845.17188 1218.8281,824 Z M 65.414062,822.58594 62.585938,825.41406 80,842.82812 97.414062,825.41406 94.585938,822.58594 80,837.17188 Z m 447.999998,0 -2.82812,2.82812 L 528,842.82812 545.41406,825.41406 542.58594,822.58594 528,837.17188 Z m 448,0 -2.82812,2.82812 L 976,842.82812 993.41406,825.41406 990.58594,822.58594 976,837.17188 Z M 288,826.82812 293.17188,832 272,853.17188 266.82812,848 Z m 32,0 L 341.17188,848 336,853.17188 314.82812,832 Z m 416,0 L 741.17188,832 720,853.17188 714.82812,848 Z m 32,0 L 789.17188,848 784,853.17188 762.82812,832 Z m 416,0 L 1189.1719,832 1168,853.17188 1162.8281,848 Z m 32,0 L 1237.1719,848 1232,853.17188 1210.8281,832 Z m -920,8 L 301.17188,840 280,861.17188 274.82812,856 Z m 16,0 L 333.17188,856 328,861.17188 306.82812,840 Z m 432,0 L 749.17188,840 728,861.17188 722.82812,856 Z m 16,0 L 781.17188,856 776,861.17188 754.82812,840 Z m 432,0 L 1197.1719,840 1176,861.17188 1170.8281,856 Z m 16,0 L 1229.1719,856 1224,861.17188 1202.8281,840 Z m -1056,8 L 173.17188,864 168,869.17188 146.82812,848 Z m 152,0 L 325.17188,864 320,869.17188 298.82812,848 Z m 152,0 L 461.17188,848 440,869.17188 434.82812,864 Z m 144,0 L 621.17188,864 616,869.17188 594.82812,848 Z m 152,0 L 773.17188,864 768,869.17188 746.82812,848 Z m 152,0 L 909.17188,848 888,869.17188 882.82812,864 Z m 144,0 L 1069.1719,864 1064,869.17188 1042.8281,848 Z m 152,0 L 1221.1719,864 1216,869.17188 1194.8281,848 Z m -1056,8 L 165.17188,872 160,877.17188 138.82812,856 Z m 152,0 L 317.17188,872 312,877.17188 290.82812,856 Z m 168,0 L 469.17188,856 448,877.17188 442.82812,872 Z m 128,0 L 613.17188,872 608,877.17188 586.82812,856 Z m 152,0 L 765.17188,872 760,877.17188 738.82812,856 Z m 168,0 L 917.17188,856 896,877.17188 890.82812,872 Z m 128,0 L 1061.1719,872 1056,877.17188 1034.8281,856 Z m 152,0 L 1213.1719,872 1208,877.17188 1186.8281,856 Z m -1168,8 L 29.171875,864 8,885.17188 2.828125,880 Z m 112,0 L 157.17188,880 152,885.17188 130.82812,864 Z m 152,0 L 309.17188,880 304,885.17188 282.82812,864 Z m 184,0 L 477.17188,864 456,885.17188 450.82812,880 Z m 112,0 L 605.17188,880 600,885.17188 578.82812,864 Z m 152,0 L 757.17188,880 752,885.17188 730.82812,864 Z m 184,0 L 925.17188,864 904,885.17188 898.82812,880 Z m 112,0 L 1053.1719,880 1048,885.17188 1026.8281,864 Z m 152,0 L 1205.1719,880 1200,885.17188 1178.8281,864 Z m -1152,8 L 37.171875,872 16,893.17188 10.828125,888 Z m 96,0 L 149.17188,888 144,893.17188 122.82812,872 Z m 352,0 L 485.17188,872 464,893.17188 458.82812,888 Z m 96,0 L 597.17188,888 592,893.17188 570.82812,872 Z m 352,0 L 933.17188,872 912,893.17188 906.82812,888 Z m 96,0 L 1045.1719,888 1040,893.17188 1018.8281,872 Z m -984,8 L 45.171875,880 24,901.17188 18.828125,896 Z m 80,0 L 141.17188,896 136,901.17188 114.82812,880 Z m 368,0 L 493.17188,880 472,901.17188 466.82812,896 Z m 80,0 L 589.17188,896 584,901.17188 562.82812,880 Z m 368,0 L 941.17188,880 920,901.17188 914.82812,896 Z m 80,0 L 1037.1719,896 1032,901.17188 1010.8281,880 Z m -968,8 L 53.171875,888 32,909.17188 26.828125,904 Z m 64,0 L 133.17188,904 128,909.17188 106.82812,888 Z m 384,0 L 501.17188,888 480,909.17188 474.82812,904 Z m 64,0 L 581.17188,904 576,909.17188 554.82812,888 Z m 384,0 L 949.17188,888 928,909.17188 922.82812,904 Z m 64,0 L 1029.1719,904 1024,909.17188 1002.8281,888 Z m -952,8 L 61.171875,896 40,917.17188 34.828125,912 Z m 48,0 L 125.17188,912 120,917.17188 98.828125,896 Z m 352,0 72,72 1.41406,-1.41406 L 600,890.82812 621.17188,912 528,1005.1719 434.82812,912 Z m 48,0 L 509.17188,896 488,917.17188 482.82812,912 Z m 48,0 L 573.17188,912 568,917.17188 546.82812,896 Z m 352,0 72,72 1.41406,-1.41406 L 1048,890.82812 1069.1719,912 976,1005.1719 882.82812,912 Z m 48,0 L 957.17188,896 936,917.17188 930.82812,912 Z m 48,0 L 1021.1719,912 1016,917.17188 994.82812,896 Z m -936,8 L 69.171875,904 48,925.17188 42.828125,920 Z m 32,0 L 117.17188,920 112,925.17188 90.828125,904 Z m 416,0 L 517.17188,904 496,925.17188 490.82812,920 Z m 32,0 L 565.17188,920 560,925.17188 538.82812,904 Z m 416,0 L 965.17188,904 944,925.17188 938.82812,920 Z m 32,0 L 1013.1719,920 1008,925.17188 986.82812,904 Z m -920,8 L 77.171875,912 56,933.17188 50.828125,928 Z m 16,0 L 109.17188,928 104,933.17188 82.828125,912 Z m 432,0 L 525.17188,912 504,933.17188 498.82812,928 Z m 16,0 L 557.17188,928 552,933.17188 530.82812,912 Z m 432,0 L 973.17188,912 952,933.17188 946.82812,928 Z m 16,0 L 1005.1719,928 1000,933.17188 978.82812,912 Z m -904,8 L 101.17188,936 96,941.17188 74.828125,920 Z m 448,0 L 549.17188,936 544,941.17188 522.82812,920 Z m 448,0 L 997.17188,936 992,941.17188 970.82812,920 Z m -904,8 L 93.171875,944 88,949.17188 66.828125,928 Z m 448,0 L 541.17188,944 536,949.17188 514.82812,928 Z m 448,0 L 989.17188,944 984,949.17188 962.82812,928 Z m -904,8 L 85.171875,952 80,957.17188 58.828125,936 Z m 448,0 L 533.17188,952 528,957.17188 506.82812,936 Z m 448,0 L 981.17188,952 976,957.17188 954.82812,936 Z m -656,18.34376 -1.41406,1.41406 -97.41406,97.41406 24,24 -22.58594,22.5859 -1.41406,1.4141 24,24 -24,24 L 304,1242.8281 402.82812,1144 l -24,-24 22.58594,-22.5859 1.41406,-1.4141 -1.41406,-1.4141 L 378.82812,1072 401.41406,1049.4141 402.82812,1048 Z m 448,0 -1.41406,1.41406 -97.41406,97.41406 24,24 -22.58594,22.5859 -1.41406,1.4141 24,24 -24,24 L 752,1242.8281 850.82812,1144 l -24,-24 22.58594,-22.5859 1.41406,-1.4141 -1.41406,-1.4141 L 826.82812,1072 849.41406,1049.4141 850.82812,1048 Z m 448,0 -1.4141,1.41406 -97.414,97.41406 24,24 -22.586,22.5859 -1.414,1.4141 24,24 -24,24 98.8281,98.8281 80,-80 v -5.6562 l -80,80 L 1106.8281,1144 1128,1122.8281 l 72,72 1.4141,-1.414 70.5859,-70.586 8,8 v -5.6562 L 1274.8281,1120 1280,1114.8281 v -5.6562 L 1258.8281,1088 l 5.1719,-5.1719 16,16 v -5.6562 L 1266.8281,1080 l 5.1719,-5.1719 8,8 v -5.6562 L 1274.8281,1072 1280,1066.8281 v -5.6562 l -80,79.998 L 1106.8281,1048 1200,954.82812 l 80,79.99998 v -5.6562 z M 304,954.82812 397.17188,1048 304,1141.1699 210.82812,1048 Z m 448,0 L 845.17188,1048 752,1141.1699 658.82812,1048 Z M 304,997.17188 253.17188,1048 l 1.41406,1.4141 L 304,1098.8281 354.82812,1048 Z m 448,0 -50.82812,50.82812 1.41406,1.4141 L 752,1098.8281 802.82812,1048 Z m 448,0 -50.8281,50.82812 1.414,1.4141 L 1200,1098.8281 1250.8281,1048 Z M 304,1002.8281 349.17188,1048 304,1093.1719 258.82812,1048 Z m 448,0 L 797.17188,1048 752,1093.1719 706.82812,1048 Z m 448,0 L 1245.1719,1048 1200,1093.1719 1154.8281,1048 Z m -1120,18.3438 -1.414062,1.414 L 0,1101.1719 v 5.6562 l 80,-80 L 173.17188,1120 80,1213.1699 0,1133.1719 v 5.6562 L 5.171875,1144 0,1149.1719 v 5.6562 l 8,-8 L 13.171875,1152 0,1165.1719 v 5.6562 l 16,-16 L 21.171875,1160 0,1181.1719 v 5.6562 L 5.171875,1192 0,1197.1719 v 5.6562 l 8,-8 72,72 1.414062,-1.414 L 152,1194.8281 173.17188,1216 l -64,64 h 5.65624 l 64,-64 -24,-24 22.58594,-22.5859 1.41406,-1.4141 -1.41406,-1.4141 L 154.82812,1144 177.41406,1121.4141 178.82812,1120 Z m 224,0 -18.82812,18.8281 1.41406,1.4141 L 304,1058.8281 322.82812,1040 Z m 224,0 -1.41406,1.414 -97.41406,97.4141 24,24 -22.58594,22.5859 -1.41406,1.4141 1.41406,1.4141 22.58594,22.5859 -24,24 64,64 h 5.65624 l -64,-64 21.17188,-21.1719 72,72 1.41406,-1.414 L 600,1194.8281 621.17188,1216 l -64,64 h 5.65624 l 64,-64 -24,-24 22.58594,-22.5859 1.41406,-1.4141 -1.41406,-1.4141 L 602.82812,1144 625.41406,1121.4141 626.82812,1120 Z m 224,0 -18.82812,18.8281 1.41406,1.4141 L 752,1058.8281 770.82812,1040 Z m 224,0 -1.41406,1.414 -97.41406,97.4141 24,24 -22.58594,22.5859 -1.41406,1.4141 1.41406,1.4141 22.58594,22.5859 -24,24 64,64 h 5.65624 l -64,-64 21.17188,-21.1719 72,72 1.41406,-1.414 70.58594,-70.586 21.1719,21.1719 -64,64 h 5.6562 l 64,-64 -24,-24 22.586,-22.5859 1.414,-1.4141 -1.414,-1.4141 -22.586,-22.5859 22.586,-22.5859 1.414,-1.4141 z m 224,0 -18.8281,18.8281 1.414,1.4141 L 1200,1058.8281 1218.8281,1040 Z M 304,1026.8281 317.17188,1040 304,1053.1719 290.82812,1040 Z m 224,0 L 621.17188,1120 528,1213.1699 434.82812,1120 Z m 224,0 L 765.17188,1040 752,1053.1719 738.82812,1040 Z m 224,0 L 1069.1719,1120 976,1213.1699 882.82812,1120 Z m 224,0 L 1213.1719,1040 1200,1053.1719 1186.8281,1040 Z m -910.58594,27.7578 -2.82812,2.8282 17.41406,17.414 17.41406,-17.414 -2.82812,-2.8282 L 304,1069.1719 Z m 448,0 -2.82812,2.8282 17.41406,17.414 17.41406,-17.414 -2.82812,-2.8282 L 752,1069.1719 Z m 448.00004,0 -2.8282,2.8282 17.4141,17.414 17.4141,-17.414 -2.8282,-2.8282 -14.5859,14.586 z M 80,1069.1719 29.171875,1120 30.585938,1121.4141 80,1170.8281 130.82812,1120 Z m 448,0 -50.82812,50.8281 1.41406,1.4141 L 528,1170.8281 578.82812,1120 Z m 448,0 -50.82812,50.8281 1.41406,1.4141 L 976,1170.8281 1026.8281,1120 Z M 80,1074.8281 125.17188,1120 80,1165.1719 34.828125,1120 Z m 152,0 L 237.17188,1080 216,1101.1719 210.82812,1096 Z m 144,0 L 397.17188,1096 392,1101.1719 370.82812,1080 Z m 152,0 L 573.17188,1120 528,1165.1719 482.82812,1120 Z m 152,0 L 685.17188,1080 664,1101.1719 658.82812,1096 Z m 144,0 L 845.17188,1096 840,1101.1719 818.82812,1080 Z m 152,0 L 1021.1719,1120 976,1165.1719 930.82812,1120 Z m 152,0 5.1719,5.1719 L 1112,1101.1719 1106.8281,1096 Z m -888,8 L 245.17188,1088 224,1109.1719 218.82812,1104 Z m 128,0 L 389.17188,1104 384,1109.1719 362.82812,1088 Z m 320,0 L 693.17188,1088 672,1109.1719 666.82812,1104 Z m 128,0 L 837.17188,1104 832,1109.1719 810.82812,1088 Z m 320,0 5.1719,5.1719 L 1120,1109.1719 1114.8281,1104 Z m -888,8 L 253.17188,1096 232,1117.1719 226.82812,1112 Z m 112,0 L 381.17188,1112 376,1117.1719 354.82812,1096 Z m 336,0 L 701.17188,1096 680,1117.1719 674.82812,1112 Z m 112,0 L 829.17188,1112 824,1117.1719 802.82812,1096 Z m 336,0 5.1719,5.1719 L 1128,1117.1719 1122.8281,1112 Z m 112,0 L 1277.1719,1112 1272,1117.1719 1250.8281,1096 Z M 80,1093.1719 61.171875,1112 62.585938,1113.4141 80,1130.8281 98.828125,1112 Z m 448,0 -18.82812,18.8281 1.41406,1.4141 L 528,1130.8281 546.82812,1112 Z m 448,0 -18.82812,18.8281 1.41406,1.4141 L 976,1130.8281 994.82812,1112 Z M 80,1098.8281 93.171875,1112 80,1125.1719 66.828125,1112 Z m 176,0 L 261.17188,1104 240,1125.1719 234.82812,1120 Z m 96,0 L 373.17188,1120 368,1125.1719 346.82812,1104 Z m 176,0 L 541.17188,1112 528,1125.1719 514.82812,1112 Z m 176,0 L 709.17188,1104 688,1125.1719 682.82812,1120 Z m 96,0 L 821.17188,1120 816,1125.1719 794.82812,1104 Z m 176,0 L 989.17188,1112 976,1125.1719 962.82812,1112 Z m 176,0 5.1719,5.1719 L 1136,1125.1719 1130.8281,1120 Z m 96,0 L 1269.1719,1120 1264,1125.1719 1242.8281,1104 Z m -984,8 L 269.17188,1112 248,1133.1719 242.82812,1128 Z m 80,0 L 365.17188,1128 360,1133.1719 338.82812,1112 Z m 368,0 L 717.17188,1112 696,1133.1719 690.82812,1128 Z m 80,0 L 813.17188,1128 808,1133.1719 786.82812,1112 Z m 368,0 5.1719,5.1719 L 1144,1133.1719 1138.8281,1128 Z m 80,0 L 1261.1719,1128 1256,1133.1719 1234.8281,1112 Z m -968,8 L 277.17188,1120 256,1141.1719 250.82812,1136 Z m 64,0 L 357.17188,1136 352,1141.1719 330.82812,1120 Z m 384,0 L 725.17188,1120 704,1141.1719 698.82812,1136 Z m 64,0 L 805.17188,1136 800,1141.1719 778.82812,1120 Z m 384,0 5.1719,5.1719 L 1152,1141.1719 1146.8281,1136 Z m 64,0 L 1253.1719,1136 1248,1141.1719 1226.8281,1120 Z m -1000,8 72,72 1.41406,-1.414 L 376,1122.8281 397.17188,1144 304,1237.1719 210.82812,1144 Z m 48,0 L 285.17188,1128 264,1149.1719 258.82812,1144 Z m 48,0 L 349.17188,1144 344,1149.1719 322.82812,1128 Z m 352,0 72,72 1.41406,-1.414 L 824,1122.8281 845.17188,1144 752,1237.1719 658.82812,1144 Z m 48,0 L 733.17188,1128 712,1149.1719 706.82812,1144 Z m 48,0 L 797.17188,1144 792,1149.1719 770.82812,1128 Z m 400,0 5.1719,5.1719 L 1160,1149.1719 1154.8281,1144 Z m 48,0 L 1245.1719,1144 1240,1149.1719 1218.8281,1128 Z m -1158.585938,3.7578 -2.828124,2.8282 L 80,1146.8281 97.414062,1129.4141 94.585938,1126.5859 80,1141.1719 Z m 447.999998,0 -2.82812,2.8282 17.41406,17.414 17.41406,-17.414 -2.82812,-2.8282 L 528,1141.1719 Z m 448,0 -2.82812,2.8282 17.41406,17.414 17.41406,-17.414 -2.82812,-2.8282 L 976,1141.1719 Z M 288,1130.8281 293.17188,1136 272,1157.1719 266.82812,1152 Z m 32,0 L 341.17188,1152 336,1157.1719 314.82812,1136 Z m 416,0 L 741.17188,1136 720,1157.1719 714.82812,1152 Z m 32,0 L 789.17188,1152 784,1157.1719 762.82812,1136 Z m 416,0 5.1719,5.1719 L 1168,1157.1719 1162.8281,1152 Z m 32,0 L 1237.1719,1152 1232,1157.1719 1210.8281,1136 Z m -920,8 L 301.17188,1144 280,1165.1719 274.82812,1160 Z m 16,0 L 333.17188,1160 328,1165.1719 306.82812,1144 Z m 432,0 L 749.17188,1144 728,1165.1719 722.82812,1160 Z m 16,0 L 781.17188,1160 776,1165.1719 754.82812,1144 Z m 432,0 5.1719,5.1719 L 1176,1165.1719 1170.8281,1160 Z m 16,0 L 1229.1719,1160 1224,1165.1719 1202.8281,1144 Z m -1056,8 L 173.17188,1168 168,1173.1719 146.82812,1152 Z m 152,0 L 325.17188,1168 320,1173.1719 298.82812,1152 Z m 152,0 L 461.17188,1152 440,1173.1719 434.82812,1168 Z m 144,0 L 621.17188,1168 616,1173.1719 594.82812,1152 Z m 152,0 L 773.17188,1168 768,1173.1719 746.82812,1152 Z m 152,0 L 909.17188,1152 888,1173.1719 882.82812,1168 Z m 144,0 L 1069.1719,1168 1064,1173.1719 1042.8281,1152 Z m 152,0 L 1221.1719,1168 1216,1173.1719 1194.8281,1152 Z m -1056,8 L 165.17188,1176 160,1181.1719 138.82812,1160 Z m 152,0 L 317.17188,1176 312,1181.1719 290.82812,1160 Z m 168,0 L 469.17188,1160 448,1181.1719 442.82812,1176 Z m 128,0 L 613.17188,1176 608,1181.1719 586.82812,1160 Z m 152,0 L 765.17188,1176 760,1181.1719 738.82812,1160 Z m 168,0 L 917.17188,1160 896,1181.1719 890.82812,1176 Z m 128,0 L 1061.1719,1176 1056,1181.1719 1034.8281,1160 Z m 152,0 L 1213.1719,1176 1208,1181.1719 1186.8281,1160 Z m -1168,8 L 29.171875,1168 8,1189.1719 2.828125,1184 Z m 112,0 L 157.17188,1184 152,1189.1719 130.82812,1168 Z m 152,0 L 309.17188,1184 304,1189.1719 282.82812,1168 Z m 184,0 L 477.17188,1168 456,1189.1719 450.82812,1184 Z m 112,0 L 605.17188,1184 600,1189.1719 578.82812,1168 Z m 152,0 L 757.17188,1184 752,1189.1719 730.82812,1168 Z m 184,0 L 925.17188,1168 904,1189.1719 898.82812,1184 Z m 112,0 L 1053.1719,1184 1048,1189.1719 1026.8281,1168 Z m 152,0 L 1205.1719,1184 1200,1189.1719 1178.8281,1168 Z m -1152,8 L 37.171875,1176 16,1197.1719 10.828125,1192 Z m 96,0 L 149.17188,1192 144,1197.1719 122.82812,1176 Z m 352,0 L 485.17188,1176 464,1197.1719 458.82812,1192 Z m 96,0 L 597.17188,1192 592,1197.1719 570.82812,1176 Z m 352,0 L 933.17188,1176 912,1197.1719 906.82812,1192 Z m 96,0 L 1045.1719,1192 1040,1197.1719 1018.8281,1176 Z m -984,8 L 45.171875,1184 24,1205.1719 18.828125,1200 Z m 80,0 L 141.17188,1200 136,1205.1719 114.82812,1184 Z m 368,0 L 493.17188,1184 472,1205.1719 466.82812,1200 Z m 80,0 L 589.17188,1200 584,1205.1719 562.82812,1184 Z m 368,0 L 941.17188,1184 920,1205.1719 914.82812,1200 Z m 80,0 L 1037.1719,1200 1032,1205.1719 1010.8281,1184 Z m -968,8 L 53.171875,1192 32,1213.1719 26.828125,1208 Z m 64,0 L 133.17188,1208 128,1213.1719 106.82812,1192 Z m 384,0 L 501.17188,1192 480,1213.1719 474.82812,1208 Z m 64,0 L 581.17188,1208 576,1213.1719 554.82812,1192 Z m 384,0 L 949.17188,1192 928,1213.1719 922.82812,1208 Z m 64,0 L 1029.1719,1208 1024,1213.1719 1002.8281,1192 Z m -952,8 L 61.171875,1200 40,1221.1719 34.828125,1216 Z m 48,0 L 125.17188,1216 120,1221.1719 98.828125,1200 Z m 400,0 L 509.17188,1200 488,1221.1719 482.82812,1216 Z m 48,0 L 573.17188,1216 568,1221.1719 546.82812,1200 Z m 400,0 L 957.17188,1200 936,1221.1719 930.82812,1216 Z m 48,0 L 1021.1719,1216 1016,1221.1719 994.82812,1200 Z m -936,8 L 69.171875,1208 48,1229.1719 42.828125,1224 Z m 32,0 L 117.17188,1224 112,1229.1719 90.828125,1208 Z m 416,0 L 517.17188,1208 496,1229.1719 490.82812,1224 Z m 32,0 L 565.17188,1224 560,1229.1719 538.82812,1208 Z m 416,0 L 965.17188,1208 944,1229.1719 938.82812,1224 Z m 32,0 L 1013.1719,1224 1008,1229.1719 986.82812,1208 Z m -920,8 L 77.171875,1216 56,1237.1719 50.828125,1232 Z m 16,0 L 109.17188,1232 104,1237.1719 82.828125,1216 Z m 432,0 L 525.17188,1216 504,1237.1719 498.82812,1232 Z m 16,0 L 557.17188,1232 552,1237.1719 530.82812,1216 Z m 432,0 L 973.17188,1216 952,1237.1719 946.82812,1232 Z m 16,0 L 1005.1719,1232 1000,1237.1719 978.82812,1216 Z m -904,8 L 101.17188,1240 96,1245.1719 74.828125,1224 Z m 448,0 L 549.17188,1240 544,1245.1719 522.82812,1224 Z m 448,0 L 997.17188,1240 992,1245.1719 970.82812,1224 Z m -904,8 L 93.171875,1248 88,1253.1719 66.828125,1232 Z m 448,0 L 541.17188,1248 536,1253.1719 514.82812,1232 Z m 448,0 L 989.17188,1248 984,1253.1719 962.82812,1232 Z m -968,2.3438 v 5.6562 L 45.171875,1280 h 5.65625 z m 64,5.6562 L 85.171875,1256 80,1261.1719 58.828125,1240 Z m 448,0 L 533.17188,1256 528,1261.1719 506.82812,1240 Z m 448,0 L 981.17188,1256 976,1261.1719 954.82812,1240 Z m -656,18.3438 -1.41406,1.414 L 277.17188,1280 h 5.65624 L 304,1258.8281 325.17188,1280 h 5.65624 z m 448,0 -1.41406,1.414 L 725.17188,1280 h 5.65624 L 752,1258.8281 773.17188,1280 h 5.65624 z m 448,0 -1.4141,1.414 -25.414,25.4141 h 5.6562 L 1200,1258.8281 1221.1719,1280 h 5.6562 z" />
</svg>
