<svg version="1.1" viewBox="0 0 24 24" xmlns="http://www.w3.org/2000/svg" width="24" height="24" fill="currentColor">
 <path d="m9.6074 2.0137c-0.37572-0.062805-0.76924 0.097588-0.98633 0.43945l-0.27344 0.43164c-0.2724 0.42912-0.16903 0.98929 0.22461 1.2949l5.709 3.627c0.44398 0.22625 0.99513 0.081509 1.2676-0.34766l0.27344-0.43164c0.28936-0.45582 0.15499-1.0602-0.30078-1.3496l-5.5508-3.5254c-0.11393-0.072352-0.23804-0.11774-0.36328-0.13867zm-1.5625 2.9961-2.9688 4.6758 5.709 3.625 1.207-1.9004 0.91992 0.75977-0.21484 0.33789c0.20998 0.16291 0.42323 0.32205 0.63476 0.48242 0.21105 0.16105 0.42406 0.3199 0.63672 0.47852l0.63867 0.47266 0.64453 0.4668 0.64648 0.46094 0.65039 0.45703 0.6543 0.44922 0.6582 0.44336c0.21977 0.14746 0.442 0.2935 0.66406 0.4375 0.22158 0.14458 0.44459 0.28593 0.66797 0.42773l0.33594 0.21094 0.33789 0.20898c0.22625 0.13732 0.4528 0.27312 0.68164 0.40625 0.11388 0.06739 0.22846 0.13397 0.34375 0.19922 0.11491 0.06574 0.22938 0.13182 0.3457 0.19531 0.11612 0.063929 0.23222 0.12776 0.34961 0.18945l0.17578 0.09375c0.05852 0.03119 0.11619 0.063473 0.17773 0.089843 0.2454 0.10691 0.52855 0.15454 0.85938 0.12695 0.16612-0.01486 0.34122-0.045677 0.53711-0.10742 0.04902-0.01545 0.098298-0.030462 0.15039-0.050782l0.076172-0.027343 0.080078-0.033203c0.10648-0.04434 0.22017-0.10078 0.34375-0.17188 0.01179-0.14215 0.014896-0.26947 0.009766-0.38476l-0.003906-0.085938-0.007813-0.082031c-0.0037-0.0557-0.010758-0.10533-0.017578-0.15625-0.02739-0.20355-0.073749-0.37654-0.13086-0.5332-0.11583-0.31119-0.28126-0.54611-0.48242-0.72266-0.05005-0.04449-0.10304-0.083378-0.15625-0.12305l-0.16016-0.11914c-0.10584-0.08006-0.21311-0.15655-0.32031-0.23438-0.10701-0.07826-0.2158-0.15445-0.32422-0.23047-0.10808-0.07655-0.21672-0.1522-0.32617-0.22656-0.21773-0.15053-0.4376-0.29707-0.6582-0.44336l-0.33203-0.21875-0.33398-0.21484c-0.2232-0.14185-0.44489-0.2828-0.66992-0.42188-0.22469-0.13961-0.45085-0.27796-0.67774-0.41406l-0.68164-0.4082-0.68555-0.40039-0.68945-0.39453-0.69336-0.38867-0.69531-0.38477-0.69922-0.37695c-0.234-0.12504-0.46756-0.25044-0.70312-0.37305-0.23498-0.12324-0.47035-0.24844-0.70703-0.36914l-0.21484 0.33789-1.0801-0.50977 1.207-1.9004-5.709-3.625zm-3.8438 5.4043c-0.35521-0.034688-0.71555 0.12536-0.91992 0.44727l-0.27344 0.43164c-0.2895 0.45582-0.15504 1.0602 0.30078 1.3496l5.5508 3.5254c0.45582 0.28936 1.0602 0.15499 1.3496-0.30078l0.27344-0.43164c0.2725-0.42921 0.16898-0.98929-0.22461-1.2949l-5.709-3.627c-0.11099-0.056551-0.22925-0.088047-0.34766-0.09961zm-2.1309 8.168c-0.49407 0-0.89453 0.40041-0.89453 0.89453 0 0.15569 0.03935 0.30216 0.10938 0.42969h-1.2852v1.8555h10.896v-1.8555h-1.2852c0.069976-0.12758 0.10938-0.274 0.10938-0.42969 0-0.49417-0.40046-0.89453-0.89453-0.89453h-6.7559z"/>
</svg>
