<svg width="24" height="24" fill="currentColor" version="1.1" viewBox="0 0 24 24" xmlns="http://www.w3.org/2000/svg">
 <path d="m7.2957 4.0047c-1.7717 0.025-3.431 0.7278-4.6602 1.957-2.4316 2.6979-1.8682 6.9869-0.1543 8.7266 1.7139 1.7397 3.0996 1.9218 3.0996 1.9218l0.97852-2.3456c-0.5069-0.2538-1.8781-1.1527-2.4629-2.1504-0.5848-0.9977-0.60522-3.2596 1.1445-4.6485 1.7498-1.3888 3.9842-0.8087 4.9043 0.4024 0.92013 1.2111 1.1658 2.159 0.8678 4.801l-0.0026 0.014c-0.53295 1.8284-0.07067 3.857 1.3711 5.2988 1.309 1.3069 2.9753 1.5515 4.7793 1.1425l-0.04102-2.2812c-1.0668 0.4244-2.0628 0.1729-2.875-0.6387-1.1225-1.1229-1.1225-2.9433 0-4.0664 0.54963-0.5497 1.2969-0.8531 2.0742-0.8418 0.74805 0.011 1.4632 0.3128 1.9922 0.8418 0.57514 0.5774 0.80194 1.3872 0.78125 1.793l-0.06055 5.375h1.2812l0.0098 0.01h2.2559l0.74219-2.0039-2.1875-0.01c-7e-3 -1.4735-0.0096-3.1809 0.01758-3.8457 0.04533-1.1075-0.07231-2.1192-1.084-3.1328-1.0301-1.0302-2.4016-1.5255-3.8047-1.5255-0.82756 0-1.6822 0.2015-2.4492 0.5664-0.1205-1.5578-0.82191-2.8509-1.7617-3.6699-1.8688-1.6285-2.9842-1.7166-4.7559-1.6914zm0.33789 8.8828-1.8945 5.0098 1.8516 1.2656 1.8203-4.7715z"/>
</svg>
