<svg version="1.1" viewBox="0 0 24 24" xmlns="http://www.w3.org/2000/svg" width="24" height="24" fill="currentColor">
 <path d="m14.586 0c-0.16908 0.01031-0.28809 0.11485-0.39258 0.20703-0.03797 0.03352-0.099694 0.089335-0.13086 0.10352-0.10733-0.0079-0.22391-0.044984-0.34766-0.083984-0.07681-0.02401-0.15615-0.049682-0.24024-0.070312-0.11439-0.02788-0.22791-0.041016-0.33398-0.041016-0.23467 0-0.43826 0.071003-0.58984 0.20508-0.13956 0.12328-0.2133 0.27855-0.25586 0.43164-0.11413-0.01321-0.23069-0.019531-0.3457-0.019531-0.09379 0-0.18676 0.0030019-0.2793 0.013672l0.55078-0.72656s-0.87204 0.1218-2.4062 0.58398c0 0 0.11052-0.22236 0.40625-0.38867 0 0-0.031873-0.0058594-0.095703-0.0058594-0.27699 0-1.1562 0.10984-2.6582 1.2813 0 0-0.093631-0.24015 0.18359-0.7207 0 0-1.4662 0.79878-1.9512 1.8047-0.11161-0.03046-0.22873-0.043046-0.33789-0.035156-0.10172 0.0074-0.19898 0.026049-0.29297 0.042969-0.13824 0.02514-0.2678 0.047873-0.38672 0.033203-0.13674-0.01692-0.27514-0.085044-0.41992-0.1582-0.04035-0.02047-0.080873-0.04236-0.12305-0.0625-0.22984-0.11007-0.49476-0.065906-0.78516 0.13086-0.04393 0.02981-0.071834 0.074055-0.083984 0.12305l-0.017578 0.03125c-0.02561 0.06172-0.62205 1.5233-0.042969 2.3906 0.01819 0.02723 0.040467 0.052665 0.060547 0.078125-0.77624 0.84218-1.4831 1.877-1.6074 2.9414l0.62891-0.37109s-1.9218 3.0327-1.7832 5.4727l0.69336-0.66602s-1.5251 3.9652 0.85938 7.1816l0.19336-0.55469s1.3025 3.2992 3.2988 4.1309l-0.24805-0.85938s1.793 1.5762 4.8379 1.5762c0.21088 0 0.42774-0.007737 0.65039-0.023438 1.9786-0.14359 3.7894-1.1965 4.9707-2.0645 1.0291 0.71907 2.0601 0.98918 2.8438 1.0762 0.22303 0.0248 0.45198 0.03711 0.67969 0.03711 0.43882 0 0.87231-0.045016 1.2871-0.13477 0.58289-0.12602 1.1172-0.33491 1.5449-0.60547 0.73856-0.46734 1.1827-1.1431 1.2207-1.8516 0.03384-0.63044-0.25029-1.2169-0.80078-1.6543-0.47201-0.3748-0.98786-0.56641-1.5332-0.56641-0.51794 0-1.0537 0.17317-1.5918 0.51367-0.18355 0.11601-0.33983 0.25176-0.46875 0.40039 0.003201-0.65669-0.095459-1.2324-0.10352-1.2773-0.0074-0.0421-0.038988-0.074637-0.080078-0.085937-0.04109-0.0112-0.085565 4.03e-4 -0.11328 0.033203l-0.14453 0.16992c-0.06833-0.40526-0.19961-0.86707-0.41797-1.3945l0.5-0.054688s-0.33348-0.69224-1.3594-0.77539c-0.17968-0.014601-0.88086-0.57617-0.88086-0.57617s0.2124-0.92454-0.0625-1.6055c-0.4042-1.0013-0.90867-1.1931-1.4395-1.6055-0.94835-0.73677-1.528-1.3893-1.8828-1.9141-0.22436 0.12974-0.45061 0.24669-0.67969 0.3457-0.86448 0.37374-1.5975 0.45117-2.0605 0.45117-0.20565 0-0.37485-0.01407-0.50195-0.03125l0.099609 0.25781c0.01674 0.043 0.011498 0.092215-0.013672 0.13086-0.02525 0.03871-0.067203 0.062374-0.11328 0.064454-0.04009 0.0019-0.080996 0.003906-0.12109 0.003906-0.75841 0-1.5333-0.3344-2.2402-0.9668-0.26558-0.23757-0.4738-0.47559-0.61719-0.6543l-0.019531 0.18555c-0.0056 0.05552-0.042953 0.10272-0.095703 0.12109-0.0527 0.01826-0.10965 0.0050137-0.14844-0.035156-0.49767-0.51543-0.71278-1.1325-0.80469-1.5391l-0.019531 0.037109c-0.02688 0.05042-0.081883 0.078819-0.13867 0.074219-0.05697-0.0046-0.10655-0.041693-0.125-0.095703-0.26967-0.79109-0.18407-1.4782-0.078125-1.8906l-0.20703 0.13477c-0.05432 0.03529-0.12561 0.029678-0.17383-0.013672-0.04822-0.04319-0.06053-0.11418-0.03125-0.17188 0.74771-1.4774 1.6135-2.5701 2.5723-3.248 0.78354-0.55404 1.6307-0.83594 2.5195-0.83594 1.3319 0 2.3662 0.62453 2.7227 0.87109 0.3162-0.51842 0.61321-0.77148 0.90625-0.77148 0.4431 0 0.63276 0.57886 0.64062 0.60352 0.0049 0.01515 0.006159 0.031245 0.005859 0.046875h0.001953c0.05131 0 0.12099 0.0063875 0.21484 0.023438 0.305 0.05544 0.34375 0.21875 0.34375 0.21875s0.13616-0.3706-0.011719-0.5c0 0 0.021068-0.0019531 0.054688-0.0019531 0.08404 0 0.23768 0.010252 0.27734 0.076172 0 0-0.1342-0.6701-0.79688-1.0957 0.29127-0.28669 0.38156-0.61121 0.38672-0.89258 0.2367-0.34245 0.23752-0.51425 0.23633-0.57227-0.002799-0.13021-0.062958-0.24582-0.16406-0.31641-0.05199-0.03626-0.11466-0.054688-0.17773-0.054688h-0.017578zm-4.623 2.6523c-1.7689 0-3.3075 1.1567-4.5781 3.4395l0.089844-0.058594c0.054-0.03513 0.12561-0.029038 0.17383 0.013672 0.04828 0.04254 0.061343 0.11207 0.033203 0.16992-0.0038 0.0081-0.35649 0.75923-0.14258 1.7441l0.054688-0.099609c0.03028-0.05673 0.093437-0.086286 0.15625-0.072266 0.0629 0.01402 0.11001 0.068468 0.11328 0.13281 5.16e-4 0.0091 0.051481 0.82868 0.58008 1.541l0.021484-0.21875c6e-3 -0.06061 0.050131-0.11079 0.10938-0.125l0.033203-0.0039062c0.04797 0 0.094347 0.024796 0.12109 0.066406 0.0029 0.0045 0.29768 0.4593 0.79883 0.90625 0.43795 0.39047 1.1242 0.85323 1.9473 0.88672l-0.11719-0.30469c-0.01977-0.05073-0.0093463-0.10821 0.027344-0.14844 0.03678-0.04022 0.092153-0.056135 0.14453-0.041015 0.0022 6.29e-4 0.26065 0.072265 0.69141 0.072265 0.84743 0 2.4855-0.27918 4.2695-2.0664-0.40338 0.12149-0.78839 0.2969-1.1875 0.48047-0.47577 0.21868-0.96789 0.44478-1.5078 0.57617-0.25815 0.06282-0.55312 0.10156-0.86133 0.10156-0.61168 0-1.2737-0.15384-1.7949-0.57617-0.73638-0.5967-1.1142-1.2965-1.2227-2.2676-0.0038-0.03449 0.0070675-0.06603 0.023438-0.09375-0.09883 0.06204-0.17591 0.18442-0.1875 0.31641-0.0076 0.08622-0.081214 0.15039-0.16602 0.15039h-0.013672c-0.09102-0.0079-0.15832-0.088636-0.15039-0.17969 0.03047-0.34664 0.29916-0.63711 0.61328-0.66016 0.31695-0.02304 0.62166 0.22803 0.69141 0.57031 0.01826 0.0896-0.041338 0.1771-0.13086 0.19531-0.08957 0.01837-0.17517-0.039464-0.19336-0.12891-0.02537-0.12457-0.11261-0.22948-0.21289-0.27734 0.01657 0.02159 0.029933 0.045209 0.033203 0.074219 0.09864 0.88392 0.44109 1.519 1.1094 2.0605 0.69629 0.56416 1.6901 0.58403 2.3887 0.41406 0.51103-0.12431 0.9907-0.344 1.4531-0.55664 0.5483-0.25206 1.1146-0.51025 1.7441-0.61719 0.0415-0.0071 0.082944-0.013791 0.125-0.019531l0.017578-0.0039062h0.001953c0.09814-0.01347 0.24587-0.031451 0.42578-0.050781-0.06988 0.09223-0.13519 0.1951-0.19531 0.31055-0.22479 0.43164-0.36897 1.0151-0.32422 1.6758 0.0031 0.04659 0.041881 0.082031 0.087891 0.082031h0.007812c0.0486-0.0033 0.085361-0.04517 0.082031-0.09375-0.04646-0.68609 0.11563-1.2793 0.35742-1.6875 0.07176-0.12119 0.15009-0.22664 0.23242-0.3125 0.20183-0.01839 0.42711-0.033659 0.66016-0.042969-0.01692 0.09034-0.028233 0.18589-0.033203 0.28711-0.0284 0.57549 0.13015 1.2848 0.41602 1.666 0.0174 0.02317 0.045345 0.035156 0.072265 0.035156 0.018371 0 0.036775-0.0056481 0.052735-0.017578 0.039-0.02926 0.046908-0.08408 0.017578-0.12305-0.26364-0.35157-0.4128-1.0311-0.38281-1.5664 0.0058-0.1023 0.01778-0.19873 0.03711-0.28711 0.06962-0.0016 0.13921-0.0039063 0.20898-0.0039063 0.36227 0 0.66702 0.024856 0.91406 0.072266-0.0585-0.13783-0.077431-0.28408-0.056641-0.4375 0.05302-0.38999 0.34907-0.7272 0.57227-0.92188-0.02304-0.02949-0.043888-0.05348-0.054688-0.0625-0.15809-0.09653-0.3563-0.17929-0.57031-0.25391 0.26445-0.1684 0.5501-0.28523 0.77539-0.24414 0.04802 0.0087 0.094813-0.024236 0.10352-0.072266 0.0089-0.04786-0.024406-0.09302-0.072266-0.10156-0.34938-0.06366-0.74398 0.15025-1.0215 0.34766-0.09492-0.0303-0.18992-0.060514-0.28516-0.089844-0.04061-0.01241-0.080484-0.024539-0.12109-0.037109 0.1402-0.35437 0.2249-0.81284 0.10742-1.0918-0.01902-0.04496-0.070269-0.067678-0.11523-0.048828-0.044961 0.01902-0.065885 0.072392-0.046876 0.11719 0.097171 0.23093 0.013523 0.64838-0.11523 0.96875-0.52685-0.16873-1.0267-0.36518-1.2676-0.71875-0.16857-0.24778-0.40197-0.51485-0.63867-0.7793l-0.03125-0.0078125-0.027344-0.0058594-0.02539-0.0039062-0.027344-0.0039063h-0.025391l-0.027343-0.0019531-0.025391 0.0019531c-0.0165-6.44e-4 -0.032958 0.0042594-0.048828 0.0058594l-0.023438 0.0039062-0.023437 0.0058594-0.035156 0.011719-0.011719 0.0039062c-0.03217 0.01031-0.067057 0.027362-0.10156 0.044922l-0.02539 0.015625-0.025391 0.015625-0.025391 0.013672-0.011718 0.0078125-0.03125 0.023438h-0.001953-0.001953l-0.00586 0.0039062-0.021484 0.015625c-0.01468 0.01047-0.026916 0.023396-0.041016 0.035156-0.02794 0.02401-0.053825 0.051718-0.078125 0.080078-0.02411 0.0282-0.047006 0.057911-0.066406 0.087891-0.01107 0.01483-0.019427 0.030252-0.029297 0.044922-0.0081 0.01483-0.016247 0.028629-0.023438 0.042969-0.01466 0.0282-0.025456 0.055565-0.035156 0.078125l-0.013672 0.03125-0.007812 0.025391-0.007813 0.021484-0.015625-0.017578-0.017578-0.019531-0.021484-0.03125c-0.0146-0.02482-0.028736-0.05572-0.041016-0.09375-7e-3 -0.01902-0.010095-0.0401-0.015625-0.0625-0.0035-0.02208-0.006812-0.045332-0.007812-0.070312-0.0035-0.05012 8.62e-4 -0.10442 0.013672-0.16211 0.01302-0.05737 0.034869-0.11793 0.068359-0.17578 0.01676-0.02868 0.034671-0.056754 0.056641-0.083984l0.035156-0.041016 0.009765-0.0097657 0.003907-0.0039062 0.005859-0.0039063v-0.0019531l0.001953-0.0019531 0.015625-0.013672 0.013672-0.013672 0.021484-0.017578 0.041016-0.033203 0.042969-0.027344 0.044922-0.027344c0.0622-0.03207 0.12827-0.057912 0.20117-0.070312 0.02435-6e-3 0.050612-0.0083657 0.076171-0.0097656-0.38066-0.43253-0.65002-0.78778-0.59375-1.0508-0.04124-0.10153-0.16668-0.36523-0.35352-0.36523-0.11413 0-0.36152 0.10087-0.73828 0.76562-0.02064 0.03658-0.056487 0.060459-0.097657 0.068359s-0.084396-0.0010638-0.11719-0.027344c-0.01126-0.0090001-1.1548-0.90625-2.6758-0.90625zm0.80273 1.9043h0.082031c0.02712 3.23e-4 0.053128 0.0024063 0.080078 0.0039063 0.02688 0.0023 0.053718 0.0034125 0.080078 0.0078125 0.02645 4e-3 0.053889 0.0072487 0.080079 0.011719l0.039062 0.0078125 0.039063 0.0097656c0.02543 0.0063 0.048968 0.011288 0.074218 0.017578l0.009766 0.0039062 0.007812 0.0019532h0.001954l0.003906 0.0019531 0.015625 0.0039062 0.033203 0.011719c0.02543 9e-3 0.054278 0.018987 0.080078 0.029297 0.02524 0.01128 0.049789 0.022586 0.074219 0.035156 0.0975 0.05044 0.19064 0.12216 0.25781 0.21289l0.023438 0.035156 0.015625 0.021484 0.007812 0.013672 0.013672 0.029297 0.017578 0.041016 0.00586 0.017578 0.005859 0.019531 0.009766 0.033203c0.0052 0.02321 0.009658 0.046449 0.011719 0.068359 0.010829 0.08767 0.002044 0.16192-0.009766 0.22461-0.01259 0.06285-0.029312 0.11467-0.044922 0.15625-0.01549 0.04142-0.030746 0.07232-0.041016 0.09375-0.01038 0.02159-0.015625 0.033203-0.015625 0.033203s-0.003435-0.012436-0.009765-0.035156c-0.0064-0.02272-0.016714-0.056236-0.027344-0.097656-0.01096-0.04126-0.023776-0.089885-0.041016-0.14258-0.017-0.05237-0.038649-0.10937-0.068359-0.1582-0.01391-0.02433-0.032278-0.046563-0.048828-0.064453l-0.009766-0.0097656-0.019531-0.021484-0.011719-0.0097656v0.0019531l-0.003906-0.0019531-0.015625-0.011719c-0.04345-0.02917-0.098213-0.051612-0.16406-0.070313-0.016441-0.0048-0.033972-0.0086618-0.050782-0.013672-0.01687-0.0034-0.033671-0.0061957-0.050781-0.0097656l-0.033203-0.0078126-0.017578-0.0019531h-0.001953-0.001953l-0.007813-0.0019531c-0.02008-0.0029-0.040337-0.0051125-0.060547-0.0078125l-0.029297-0.0058594-0.03125-0.0019531c-0.0204-0.0016-0.040267-0.0036594-0.060547-0.0058594-0.02034-0.0027-0.040286-0.0022062-0.060546-0.0039062-0.020341-8.06e-4 -0.040337-0.0019532-0.060547-0.0019532h-0.060547l-0.03125-0.0019531-0.029297 0.0019531c-0.01984 0.0015-0.040657 0.0032063-0.060547 0.0039063-0.01997 6.44e-4 -0.037061 0.0044594-0.056641 0.0058594-0.01895 0.0024-0.041353 0.0047125-0.058593 0.0078125-0.01674 0.0031-0.033852 0.0053125-0.050782 0.0078125l-0.02539 0.0039062-0.03125 0.0078125c-0.02192 0.0058-0.042923 0.011938-0.064453 0.017578l-0.011719 0.0019531-0.001953 0.0019531h-0.001953-0.001954l-0.001953 0.0019531h-0.001953l-0.02539 0.0078125c-0.01737 0.0052-0.035625 0.012098-0.052735 0.017578-0.01681 0.0066-0.032408 0.013081-0.048828 0.019531-0.01631 0.0073-0.032908 0.014394-0.048828 0.021484-0.0632 0.02965-0.12113 0.061716-0.17383 0.097656-0.05268 0.03578-0.10008 0.074744-0.14062 0.11133-0.04079 0.03626-0.073856 0.072578-0.10156 0.10352l-0.021484 0.023438c0.1733 0.04335 0.33275 0.14606 0.42773 0.29883 0.03537 0.05689 0.017838 0.13251-0.039062 0.16797-0.01989 0.01225-0.042593 0.017578-0.064453 0.017578-0.04053 0-0.080532-0.019731-0.10352-0.056641-0.11677-0.1879-0.39224-0.26528-0.58984-0.16602-0.0598 0.03014-0.13207 0.0051325-0.16211-0.054688-0.03009-0.05995-0.0052025-0.13197 0.054688-0.16211 0.12684-0.06365 0.27097-0.080194 0.41016-0.058594 3.71e-4 -0.01466-3.469e-4 -0.029625 0.0019531-0.046875 0.0026-0.0224 0.0053287-0.047299 0.011719-0.074219l0.0097656-0.042969c0.0044001-0.0145 0.010885-0.029612 0.015625-0.044922 0.02108-0.06108 0.04974-0.12878 0.09375-0.19727 0.0438-0.06865 0.10187-0.13703 0.17188-0.20117 0.01782-0.01563 0.035748-0.031395 0.054688-0.046875 0.01939-0.01466 0.039777-0.030732 0.060547-0.044922 0.02103-0.0137 0.041923-0.028446 0.064453-0.041016l0.033203-0.019531 0.007812-0.0039063 0.00586-0.0019531 0.009765-0.0058594h0.001954l0.015624-0.0078125c0.02014-0.0097 0.040097-0.019627 0.060547-0.029297l0.033203-0.013672 0.039063-0.013672c0.02746-0.0089 0.056284-0.018324 0.083984-0.027344l0.039063-0.0097657 0.041016-0.0097656c0.02651-0.0053 0.053138-0.010452 0.080078-0.013672 0.02688-0.0034 0.052878-0.0070656 0.080078-0.0097656l0.041015-0.0039062 0.041016-0.0019532zm7.8379 1.9531c-0.24302 0.16566-0.69758 0.60384-0.76172 1.0762-0.03352 0.2464 0.04631 0.47478 0.23438 0.67969l0.007812 0.0078125 0.00586 0.0097656c0.02127 0.03537 0.17079 0.16406 0.4043 0.16406 0.31811 0 0.67162-0.22843 1.0215-0.66211 0.13118-0.1626 0.17453-0.31779 0.13086-0.47266-0.12022-0.42673-0.84556-0.72764-1.043-0.80273zm-3.9316 6.1992c0.03557-0.0081 0.071958 0.015152 0.080078 0.050782 0.0214 0.09353 0.021993 0.1903 0.007813 0.28516 0.04791-0.05129 0.092537-0.10584 0.12891-0.16602 0.01574-0.02606 0.050102-0.035281 0.076172-0.019531 0.02606 0.01573 0.033308 0.050112 0.017578 0.076172-0.15348 0.25394-0.40801 0.44134-0.69336 0.52148 0.04614 0.0266 0.091647 0.059946 0.13477 0.10352 0.14807 0.14982 0.22196 0.37234 0.21875 0.6582l-0.003906 0.021484c-0.0045 0.0143-0.10147 0.31118-0.28906 0.5293 0.02008 7e-3 0.039898 0.017956 0.054688 0.035157 0.30645 0.35769 0.62956 0.54266 0.95898 0.55273h0.027344c0.43379 0 0.7352-0.30343 0.73828-0.30664 0.04659-0.0481 0.12371-0.050206 0.17188-0.003906 0.04809 0.0466 0.048533 0.12378 0.001953 0.17188-0.01542 0.0159-0.3771 0.38281-0.91211 0.38281l-0.035156-0.001953c-0.40043-0.0123-0.78205-0.22698-1.1348-0.63867l-0.021484-0.03711c-0.24966 0.27038-0.25352 0.59832-0.25195 0.64844l0.001953 0.011718c0 0.0426-0.035585 0.078025-0.078125 0.078125-0.01932 0-0.038115-0.007484-0.052735-0.021484-0.11419-0.10752-0.1562-0.37505-0.17188-0.57422-0.31217 0.37819-0.57869 0.41016-0.66016 0.41016h-0.019531c-0.02827-4e-3 -0.05236-0.022228-0.0625-0.048828-0.01007-0.0267-0.007021-0.056625 0.011719-0.078125 0.06535-0.0747 0.11451-0.24223 0.14258-0.37109-0.05181 0.0154-0.10237 0.023437-0.15039 0.023437-0.26527 0-0.3687-0.22664-0.37305-0.23633-0.01202-0.0271-0.007501-0.059431 0.011719-0.082031 0.01913-0.0226 0.049425-0.030938 0.078125-0.023438l0.042969 0.00586c0.12364 0 0.22635-0.15215 0.26562-0.22852-0.01774-0.32885 0.061337-0.59046 0.23633-0.77734 0.2644-0.28241 0.66477-0.29688 0.74219-0.29688h0.013672 0.013672c0.02794 0 0.086507 0.003571 0.15625 0.019531 0.17556-0.019949 0.34463-0.08489 0.49024-0.18555l0.003906-0.019532c0.05123-0.12156 0.062603-0.26007 0.033203-0.38867-0.0081-0.035629 0.013188-0.071958 0.048828-0.080078zm-5.0625 0.26758c0.35113-0.0023 0.63457 0.16581 0.8418 0.50195l0.009766 0.015625c0.1811 0.28352 0.42836 0.42198 0.64648 0.54297 0.01694 9e-3 0.034471 0.018144 0.050781 0.027344 0.13622 0.0763 0.76344 0.054172 1.166 0.013672l0.17578-0.017578-0.044922 0.16992c-0.06143 0.22531-0.33517 0.39159-0.54688 0.49023l0.41797 0.2168-0.072266 0.11328c-0.20432 0.3145-0.75756 0.47561-1.0352 0.53906 0.05892 0.11237 0.1469 0.26541 0.20703 0.36719l0.11524 0.19531-0.22656-0.011719c-0.89389-0.0518-1.4357-0.9209-1.5684-1.1602-0.24898-0.0247-0.43155 0.02642-0.54297 0.15039-0.24777 0.27591-0.10881 0.8381-0.10742 0.84375l0.03125 0.12305-0.125 0.025391c-0.77925 0.16468-1.1866-0.12591-1.3535-0.30078-0.10141 0.14177-0.19 0.42494-0.22852 0.62109l-0.027344 0.13477-0.12891-0.041016c-0.61175-0.19659-0.84445-0.77023-0.92773-1.084-0.3252 0.31325-0.45747 0.71031-0.45898 0.71484l-0.087891 0.26953-0.13477-0.25c-0.61558-1.1452-0.20335-2.2336-0.18555-2.2793l0.22461 0.087891c-0.0037 9e-3 -0.32961 0.88509 0.064453 1.8418 0.10533-0.20434 0.29133-0.4918 0.58398-0.70703l0.16797-0.12305 0.023438 0.20703c9.35e-4 8e-3 0.098976 0.76296 0.67969 1.041 0.05553-0.21819 0.17898-0.59462 0.38672-0.7168l0.10352-0.060546 0.0625 0.10547c0.01115 0.0183 0.28255 0.4461 1.0703 0.32422-0.03375-0.21686-0.064429-0.66033 0.18555-0.93945 0.14239-0.15889 0.34901-0.23582 0.61328-0.23438l-0.1543-0.19922c-0.01128-0.0145-0.016572-0.034634-0.013672-0.052734 3e-3 -0.0181 0.013997-0.032769 0.029297-0.042969l0.5-0.33398-0.22266-0.72852c-0.0071-0.02317-0.001251-0.049096 0.015625-0.066406 0.01694-0.01724 0.043126-0.024048 0.066406-0.017578l0.14062 0.039062c-0.09593-0.06502-0.22028-0.11473-0.38477-0.11328-0.53399 0.0049-1.0286 0.36624-1.4258 0.65625-0.33439 0.24413-0.59747 0.4379-0.82812 0.38672l0.052734-0.23828c0.0683 0.015299 0.17822-0.035895 0.30469-0.11524-0.18086-0.14081-0.27902-0.37079-0.24609-0.60742 0.0083-0.05967 0.084589-0.090522 0.13672-0.076172 0.06357 0.0175 0.084402 0.075268 0.076172 0.13477-0.02298 0.16542 0.081287 0.34053 0.22852 0.41602 0.04414-0.0315 0.088496-0.063403 0.13281-0.095703 0.42529-0.31047 0.95446-0.69745 1.5664-0.70313zm0.32617 0.47656 0.20117 0.66016c0.0085 0.0279-0.003084 0.058119-0.027344 0.074219l-0.48047 0.32227s0.73103 1.1529 1.459 1.3496c-0.06736-0.12043-0.13882-0.2563-0.16016-0.32031l-0.044922-0.13281s-0.04546-0.20175-0.08789-0.29883c-0.03386-0.0774 0.081118-0.14439 0.11523-0.066406 0.04873 0.11153 0.095748 0.22243 0.14453 0.33398 0.2129-0.0401 0.67138-0.1602 0.90234-0.35547 0 0-0.66176-0.39782-0.69726-0.41602-0.07603-0.0388-0.009494-0.15199 0.066406-0.11328 0.07282 0.0373 0.14586 0.074089 0.21875 0.11133l0.035156-0.011718c0.12589-0.0403 0.34792-0.13456 0.49609-0.24805-0.33571 0.0225-0.85386 0.036194-1.0371-0.066406-0.01605-9e-3 -0.032208-0.018144-0.048828-0.027344-0.23127-0.12829-0.5182-0.28778-0.73242-0.62305l-0.013671-0.019531c-0.01296-0.0211-0.030385-0.050631-0.052735-0.082031l-0.25586-0.070313zm3.9766 0.064453c-0.06622 0-0.40806 0.012177-0.62891 0.24805-0.14831 0.15838-0.21275 0.38734-0.19336 0.68164l-0.007813 0.037109c-0.0054 0.0119-0.11855 0.25617-0.31836 0.32031 0.0357 0.024699 0.083664 0.042968 0.14453 0.042968 0.06011 0 0.12796-0.02034 0.20117-0.05664 0.07189-0.12866 0.11411-0.26921 0.11914-0.41797 0.0033-0.0993 0.15763-0.0996 0.1543 0-0.0062 0.18218-0.057862 0.35912-0.15039 0.51562-0.01052 0.0671-0.042141 0.24825-0.10547 0.40039 0.1198-0.048799 0.3029-0.16916 0.50586-0.46289 0.0045-0.15203 0.044854-0.29969 0.12109-0.43164 0.04972-0.0862 0.18463-0.007775 0.13477 0.078125-0.06396 0.1106-0.098483 0.2319-0.10156 0.35938l0.003907 0.013672c6.4e-5 0.12786 0.012502 0.29574 0.039062 0.43555 0.04338-0.16455 0.13626-0.36871 0.33203-0.54102 0.1913-0.16838 0.30527-0.47636 0.32617-0.53711 7.57e-4 -0.23714-0.05782-0.4158-0.17383-0.5332-0.14341-0.14504-0.33774-0.15234-0.375-0.15234h-0.007812-0.007813-0.011719zm1.7617 2.1797c0.031034-3.88e-4 0.06195 0.009703 0.085938 0.033203 0.0566 0.0551 1.3866 1.369 1.2246 2.791-0.0018 0.015-0.007182 0.028316-0.013672 0.041016l-0.2207-0.21484c0.04383-1.2507-1.1456-2.4311-1.1582-2.4434-0.04791-0.0468-0.048703-0.1239-0.001953-0.17188 0.02336-0.02395 0.052951-0.034769 0.083984-0.035156zm-4.4648 0.80469-0.21289 0.6582c0.37632 0.0351 1.1539 0.16777 1.3965 0.66797l0.091797 0.19141-0.31055 0.042969 0.29102 0.36914-0.025391 0.02539-0.13476 0.27148-0.70508-0.89648 0.36328-0.050781c-0.31412-0.25141-0.92619-0.32019-1.1777-0.32422l-0.20898-0.003906 0.17188-0.5293c-1.1722 0.31247-1.8966 0.90959-1.9043 0.91602l-0.2832 0.23633 0.054688-0.67773c-0.63144 0.55452-0.97859 1.5493-0.98242 1.5605l-0.29102-0.10156c0.01926-0.0564 0.48274-1.3868 1.377-1.916l0.25586-0.15039-0.048828 0.60742c0.36493-0.24159 1.0695-0.63677 2.0215-0.8418l0.26172-0.054688zm6.3848 1.3809 0.38867 0.79688c0.01628 0.0336 0.047074 0.055646 0.083984 0.060546 0.0369 5e-3 0.07544-0.009409 0.09961-0.037109l0.49219-0.57812c0.07107 0.55616 0.18942 1.9422-0.30273 2.5293-0.14697 0.17551-0.33505 0.26172-0.57227 0.26172-0.0427 0-0.087202-0.003766-0.13281-0.009766-1.2877-0.15827-1.377-2.0272-1.3672-2.7031l0.66797 0.64648c0.0253 0.0245 0.061213 0.035197 0.095703 0.029297 0.03465-6e-3 0.064448-0.029147 0.080078-0.060547l0.4668-0.93555zm-5.0547 0.88086 0.39648 0.81445c0.01668 0.0341 0.05013 0.0577 0.087891 0.0625 0.03771 5e-3 0.074926-0.008609 0.099609-0.037109l0.50391-0.5918c0.072861 0.56849 0.19393 1.984-0.30859 2.5859-0.15045 0.17947-0.34314 0.26758-0.58594 0.26758-0.04356 0-0.088133-0.002812-0.13477-0.007812-1.3173-0.16197-1.4104-2.0743-1.4004-2.7656l0.68359 0.66016c0.02582 0.025 0.062287 0.03745 0.097657 0.03125 0.03544-6e-3 0.065981-0.028447 0.082031-0.060547l0.47852-0.95898zm8.4629 0.44727c0.32182 0 0.62258 0.11298 0.91797 0.34766 0.29491 0.23411 0.44206 0.51898 0.42578 0.82226-0.02047 0.38161-0.29774 0.7682-0.75976 1.0605-0.21788 0.13793-1.0271 0.58789-2.293 0.58789-0.19064 0-0.38374-0.01015-0.57422-0.03125-0.59127-0.0658-1.3536-0.25741-2.1328-0.73828 0.17437-0.14907 0.31282-0.27402 0.41016-0.36524 0.18452 0.12439 0.3954 0.20177 0.62891 0.23047 0.05447 7e-3 0.10664 0.009766 0.1582 0.009766 0.30232 0 0.55332-0.11239 0.74219-0.33789 0.04416-0.0527 0.083203-0.11177 0.11914-0.17383 0.09492 0.23965 0.25651 0.45768 0.48438 0.63867 0.08783 0.0698 0.19855 0.10938 0.31055 0.10938 0.15293 0 0.29554-0.069703 0.39062-0.18945 0.17098-0.21528 0.13522-0.52826-0.080078-0.69922-0.14326-0.11363-0.21233-0.24162-0.20508-0.37695 0.0098-0.18275 0.15997-0.38175 0.40234-0.53516 0.37613-0.23788 0.73126-0.35937 1.0547-0.35937zm-9.8672 1.3633c0.02807 0.10494 0.05894 0.20441 0.09375 0.29883-0.2849 0.15227-0.80532 0.49407-0.88281 0.99219l-0.30469-0.046875c0.10417-0.66973 0.7763-1.0835 1.0938-1.2441z"/>
</svg>
