<svg fill="currentColor" version="1.1" viewBox="0 0 24 24" xmlns="http://www.w3.org/2000/svg" width="24" height="24">
 <path d="m4.4839 2 1.0155 3.3996 1.6289 1.9437c-0.6 0.10473-1.1059 0.31699-1.5633 0.58581-0.57575 0.50577-0.89486 1.1409-1.1465 1.8098l-1.831 1.4238c-0.09796-0.0838-0.16996-0.01504-0.24876 0.01702-0.27979 0.16443-0.58486 0.30656-0.74812 0.56878-0.29748 0.77045 0.20649 1.1838 0.52626 1.661 0.20452 0.22098 0.66378 0.5036 1.1029 0.53315l3.6264-1.7742 1.9804-0.36923c-0.3467 2.4124-0.31506 5.0371-0.38326 7.6053l-1.0474 1.759-0.25037 0.19979 6.2877-0.48418 2.4459 1.1208 0.76513-0.3336 1.5633-0.0846-0.3329-0.43522 1.1803-0.05058-0.06553 0.6196 1.0472-0.60282h0.46578l0.28256 0.2506 0.51614-0.36739 0.79846-0.03379c-0.46005-2.5983-0.752-5.2246-1.0155-7.8559-0.0511-0.67964-0.10554-1.3532-0.28232-1.8098-0.4211-0.89128-0.96673-1.5978-1.6123-2.1603-0.81047-0.67042-1.6471-1.2778-2.5791-1.6422-0.82615-0.3124-1.6517-0.096-2.478 0.0676-0.9251 0.20918-1.8143 0.52693-2.6782 0.921 0.17177-0.40214 0.46141-0.78675 0.83709-0.98354 0.51242-0.26827 0.95227-0.39043 1.4914-0.54027 0.48332-0.18088 0.7883-0.47529 1.1146-0.75502 0.8982-1.0801 1.6702-2.196 2.4276-3.3167-1.3639 0.31421-2.7281 0.84465-4.0921 1.3578-0.86436 0.32252-1.6396 0.73442-2.2947 1.373l-1.3971 1.3901c-0.31391 0.24212-0.47262-0.0067-0.64903-0.19979l-1.0304-1.5425zm0.75984 1.3257c0.49414 0.52922 0.98519 1.1128 1.5298 1.6185 0.47325 0.42353 0.79743 0.84808 1.1063 1.2716 0.23152 0.37966 0.49503 0.7471 0.82031 1.0953 0.19955 0.17796 0.49948 0.399 0.93318 0.166 0.31556-0.16716 0.55596-0.40315 0.77846-0.65362 0.52123-0.57505 1.033-1.1303 1.5551-1.4882 1.3947-0.82281 2.7968-1.2341 4.1997-1.7488-0.51497 0.87619-1.4829 2.1309-2.0899 2.5243-0.53667 0.298-1.1039 0.52285-1.6694 0.74834-0.62851 0.24218-0.93713 0.57806-1.2171 0.92261-0.30985 0.49688-0.49799 0.95864-0.33796 1.3224 0.0996 0.21757 0.23354 0.43583 0.40693 0.6534 0.26452 0.30219 0.54306 0.5893 0.88077 0.81778 0.20669 0.10756 0.40502 0.0505 0.59684-0.01678-0.2776 0.02181-0.5605-0.02066-0.71777-0.1745-0.50082-0.42344-0.79496-0.78011-1.0171-1.1445 0.94291-0.45239 1.8109-0.75196 2.651-0.99734 0.94922-0.3102 1.8212-0.44869 2.6784-0.34693 1.5686 0.37369 2.6735 1.7071 3.2144 2.3313 0.46444 0.59283 0.89466 1.4985 0.9079 2.0115 0.12598 2.692 0.59496 5.3837 0.94997 8.0756l-0.37152 0.01701-0.19013 0.54856-0.12944-0.43522-0.26738 0.05265v-0.51476l-0.08736 0.50626-0.28417-0.08805-0.37981 0.34026 0.04185-0.4182-0.18139-0.0085 0.08736-0.38256-0.19842 0.31314-0.51108 0.11174 0.77846-1.0173 0.05196-0.06782-0.24209 0.17266-0.32785-1.9063-0.96837-1.7488 0.60535-0.71455s-0.55315 0.55807-0.55315 0.52326c0-0.03481 0.42372-1.0615 0.42372-1.0615l-0.07058-0.69754-0.04207 0.68903-0.49268 1.1123-0.76146 0.27933 0.01839-0.166-0.96837-0.72122-0.48418-1.0615 0.12944-1.0362-0.25037 0.88721-0.23381-1.0785 0.05219 1.253 0.6658 0.9479-0.61362-0.62626 0.64879 0.8702 0.83732 0.66189-0.72627 4.3257 0.62213 0.89572-0.34463 0.06943-0.63063-0.76536 0.36165 0.8787-0.53476-0.0354-0.34624-0.8433 0.04368 0.67892-1.4526-0.49591 1.0944-4.4393s-0.18238 0.24432-0.18668 0.22691c-0.0043-0.01741-1.0491-1.2833-1.0491-1.2833l-0.45039-0.14898 0.37152 0.20484 0.45039 0.53154s-2.9296-1.0016-2.9469-0.98859c-0.01728 0.01305-0.82215 0.9141-0.82215 0.9141s0.74306 4.9036 0.74306 4.8862c0-0.01742-2.411 0.14393-2.411 0.14393l0.36831-0.79226-0.50097 0.66189-0.47085 0.01678 0.6911-1.0309 0.0085-4.0854 0.39658-4.2256c0.2929-0.08749 0.54127-0.25925 0.72627-0.54856l0.22025-0.46901c-0.27354 0.42148-0.59794 0.75791-1.0405 0.90077-0.713 0.22216-1.6993 0.27401-2.3303 0.43682-0.61928 0.14479-2.9586 1.3144-2.9739 1.373-0.02826 0.10885 0.0074-0.84464-0.15312-0.81433 0.02714 0.49439-0.06329 0.8555-0.28577 1.0615-0.25564 0.15095-0.52156 0.21776-0.81202 0.08805-0.31097-0.2188-0.58379-0.50963-0.64558-0.838-0.03373-0.21155-0.05223-0.4373 0.10921-0.57223 0.17968-0.14287 0.37455-0.14516 0.57155-0.11357 0.28188 0.07315 0.51844 0.21481 0.76007 0.34877-0.22442-0.20627-0.47054-0.37946-0.74334-0.51289l1.3737-1.0716c0.33449-0.26471 0.67691-0.52578 0.83893-0.8518l0.50097-0.88882c0.16403-0.32468 0.46075-0.48588 0.76834-0.635 0.54755-0.20862 1.1288-0.38359 1.7804-0.4874l-2.0124-2.2975zm8.875 1.3884-2.0846 2.0368 1.6878-0.82789-0.83893 0.29107zm-5.8624 3.132c-0.18079 0.0037-0.36315 0.02571-0.53453 0.06277-0.39152 0.13406-0.5135 0.2572-0.73133 0.42326 0.59334-0.30428 0.90529-0.42234 1.5886-0.47406-0.10581-0.01099-0.21432-0.01419-0.32279-0.01196zm0.1899 0.94307c-0.11247-2e-3 -0.23602 0.01226-0.36808 0.05242-0.33223 0.10104-0.5831 0.52664-0.54465 0.55706 0.32039-0.48876 0.73128-0.6571 1.4794-0.45545 0 0-0.2293-0.14801-0.56672-0.15404zm-0.05702 0.2506c-0.11614 0.0047-0.22997 0.03666-0.34647 0.10162-0.16289 0.10786-0.27037 0.20837-0.35796 0.33681 0.10437-0.09085 0.21495-0.17132 0.34463-0.22002-0.11656 0.15046-0.04369 0.36102-0.01517 0.4182 0.09564 0.13997 0.26278 0.17294 0.39337 0.15404 0.13045-0.01888 0.32559-0.15368 0.30094-0.38095-0.02962-0.16984-0.10674-0.29978-0.31267-0.32164 0.18149-0.04735 0.33252 0.05364 0.47751 0.18277-0.06836-0.09924-0.13262-0.20335-0.27244-0.25221-0.07261-0.01488-0.14206-0.02146-0.21174-0.01862zm-5.5228 2.9729 0.07564 0.3828c0.01821 0.09222-0.02275 0.28761-0.06736 0.35543-0.0557 0.08469 0.11786 0.18866 0.21036 0.18967 0.10926 0.0012 0.22128 0.0072 0.21014-0.24715-0.08333-0.27427-0.25416-0.47333-0.42878-0.68075zm-0.64052 0.06277c0.11135 0.35707-0.05511 0.32917 0.22186 0.59086 0.09506 0.01846 0.0853-0.101 0.07564-0.14898-0.02617-0.20152-0.16054-0.29707-0.29749-0.44188zm9.3459 3.3523 1.1399 0.38923 1.0171 1.8624-0.98193 1.8199-0.93986 0.53844s-0.66548-4.2031-0.63041-4.2208c0.03508-0.01766 0.39521-0.38923 0.39521-0.38923zm6.3396 0.93618 0.85088 1.6624 0.18323 1.5238-1.1937 1.4393s-0.82492-0.87991-0.8003-0.92951c0.02463-0.0496 0.64052-3.6215 0.64052-3.6215z"/>
</svg>
